<svg xmlns="http://www.w3.org/2000/svg" viewBox="0 0 450 450"><path fill="#fff" fill-rule="evenodd" d="M448.21 224.77c0 123.13-99.82 222.96-222.94 222.96-123.13 0-222.94-99.83-222.94-222.96 0-123.14 99.81-222.96 222.94-222.96 123.12 0 222.94 99.82 222.94 222.96z"/><path fill="#e7c520" fill-rule="evenodd" d="M383.87 383.38c-42.36 42.36-98.68 65.68-158.6 65.68-59.93 0-116.25-23.32-158.61-65.68C24.28 341.01.95 284.68.95 224.77c0-59.92 23.33-116.25 65.71-158.62C109.02 23.78 165.34.45 225.27.45c59.92 0 116.24 23.33 158.6 65.7 42.38 42.37 65.71 98.7 65.71 158.62 0 59.91-23.33 116.24-65.71 158.61zm-6.11-311.12C337.02 31.55 282.87 9.11 225.27 9.11c-57.62 0-111.76 22.44-152.5 63.15C32.04 113 9.61 167.16 9.61 224.77c0 57.6 22.43 111.75 63.16 152.5 40.74 40.72 94.88 63.16 152.5 63.16 57.6 0 111.75-22.44 152.49-63.16 40.73-40.75 63.15-94.9 63.15-152.5 0-57.61-22.42-111.77-63.15-152.51zm40.85 213H31.91c-6.97-11.96-10.76-40.71-10.76-63.65 0-112.71 91.39-202.19 204.12-202.19 112.71 0 204.1 90.1 204.1 202.83 0 22.92-3.79 51.05-10.76 63.01zm-103.54-31.23c0 2.1 1.71 3.81 3.81 3.81s3.81-1.71 3.81-3.81v-12.61l3.75-3.94 13.52 18.72c.53.72 1.51 1.64 3.09 1.64 2.04 0 3.74-1.71 3.74-3.74 0-.79-.26-1.58-.72-2.17l-14.51-19.77 12.35-13.4c.58-.65.98-1.44.98-2.49a3.67 3.67 0 0 0-3.68-3.68c-.99 0-1.97.39-2.76 1.25l-15.76 17.6V216.4c0-2.1-1.71-3.81-3.81-3.81s-3.81 1.71-3.81 3.81v37.63zm-15.44 0c0 2.1 1.71 3.81 3.81 3.81s3.81-1.71 3.81-3.81V216.4c0-2.1-1.71-3.81-3.81-3.81s-3.81 1.71-3.81 3.81v37.63zm.27-44.13c.85.79 1.9.98 3.01 0l6.44-5.91c1.05-.99 1.18-2.56-.26-3.94-1.31-1.31-3.02-1.38-3.94-.2l-5.58 7.09c-.73.79-.73 1.97.33 2.96zm-41.66 44.2c0 2.03 1.71 3.74 3.75 3.74 2.03 0 3.74-1.71 3.74-3.74v-25.88l19.37 27.98c.66.98 1.85 1.64 3.09 1.64 2.04 0 3.74-1.71 3.74-3.74v-37.77c0-2.03-1.7-3.74-3.74-3.74-2.03 0-3.74 1.71-3.74 3.74v26.01l-19.44-28.17c-.66-.99-1.71-1.58-3.02-1.58-2.04 0-3.75 1.71-3.75 3.74v37.77zm-34.5 3.21h26.86c1.9 0 3.41-1.51 3.41-3.41 0-1.91-1.51-3.42-3.41-3.42h-20.03l22-32.11c.46-.66.59-1.32.59-1.91 0-1.83-1.51-3.35-3.35-3.35h-24.83c-1.83 0-3.34 1.52-3.34 3.35 0 1.84 1.51 3.36 3.34 3.36h18.07l-22.07 32.04c-.4.53-.66 1.32-.66 2.04 0 1.9 1.52 3.41 3.42 3.41zm8.73-63.65c.75.98 2.1 1.58 3.38 1.58 2.4 0 4.35-1.96 4.35-4.36 0-.82-.23-1.72-.9-2.62l-11.1-13.51c7.2-.9 11.55-7.8 11.55-14.93 0-8.47-5.7-15.68-15.83-15.68h-14.33c-2.4 0-4.35 1.95-4.35 4.35v42.39c0 2.4 1.95 4.36 4.35 4.36 2.4 0 4.35-1.96 4.35-4.36v-15.6h4.88l13.65 18.38zm-.82-60.32c0-1.65-1.28-2.93-2.93-2.93-.68 0-1.35.23-1.73.53l-5.4 3.75-5.4-3.75c-.37-.3-1.05-.53-1.72-.53-1.65 0-2.93 1.28-2.93 2.93 0 1.2.6 1.95 1.35 2.47l6.98 4.66c.52.37 1.12.52 1.72.52.6 0 1.2-.15 1.73-.52l6.98-4.66c.75-.52 1.35-1.27 1.35-2.47zm-49.23 124.5c1.7 0 2.95-1.12 3.54-2.5l4.01-9.52h15.89l4.01 9.52c.58 1.38 1.83 2.5 3.54 2.5 2.04 0 3.75-1.71 3.75-3.74 0-.4-.07-.92-.27-1.38l-15.49-37.77c-.4-.92-1.45-2.36-3.49-2.36-2.03 0-3.08 1.44-3.48 2.36l-15.5 37.77c-.19.46-.26.98-.26 1.38 0 2.03 1.71 3.74 3.75 3.74zm-38.54-3.81c0 2.1 1.71 3.81 3.81 3.81s3.81-1.71 3.81-3.81v-12.61l3.74-3.94 13.53 18.72c.53.72 1.51 1.64 3.09 1.64 2.03 0 3.74-1.71 3.74-3.74 0-.79-.26-1.58-.72-2.17l-14.52-19.77 12.35-13.4c.59-.65.99-1.44.99-2.49a3.67 3.67 0 0 0-3.68-3.68c-.99 0-1.97.39-2.76 1.25l-15.76 17.6V216.4c0-2.1-1.71-3.81-3.81-3.81s-3.81 1.71-3.81 3.81v37.63zm-39.35 3.81c1.7 0 2.95-1.12 3.54-2.5l4-9.52h15.9l4 9.52c.59 1.38 1.84 2.5 3.55 2.5 2.04 0 3.74-1.71 3.74-3.74 0-.4-.06-.92-.26-1.38l-15.5-37.77c-.39-.92-1.45-2.36-3.48-2.36-2.04 0-3.09 1.44-3.48 2.36l-15.5 37.77c-.2.46-.26.98-.26 1.38 0 2.03 1.71 3.74 3.75 3.74zm19.96-57.79c-1.32-1.31-3.02-1.38-3.94-.2l-5.59 7.09c-.72.79-.72 1.97.33 2.96.86.79 1.91.98 3.02 0l6.44-5.91c1.05-.99 1.18-2.56-.26-3.94zm-59.16 16.41c0 1.84 1.51 3.36 3.35 3.36h18.06l-22.06 32.04c-.4.53-.66 1.32-.66 2.04 0 1.9 1.51 3.41 3.42 3.41H94.3c1.9 0 3.41-1.51 3.41-3.41 0-1.91-1.51-3.42-3.41-3.42H74.27l21.99-32.11c.47-.66.6-1.32.6-1.91 0-1.83-1.51-3.35-3.35-3.35H68.68c-1.84 0-3.35 1.52-3.35 3.35zm4.25-47.03c0 17.55 8.63 26.26 23.79 26.26 15.15 0 23.78-8.71 23.78-26.26 0-17.79-8.63-26.34-23.78-26.34-15.16 0-23.79 8.55-23.79 26.34zm55.59-76.5H114.46c-.11-.37-.23-.69-.34-1.03-.98-2.98-1.94-5.97-2.91-8.96-.14-.44-.34-.8-.77-1-.76-.35-1.57.01-1.86.84-.69 2.14-1.37 4.27-2.07 6.42-.4 1.24-.81 2.48-1.21 3.73H94.79c-.19 0-.4 0-.59.05-.53.16-.86.53-.96 1.07-.11.59.1 1.06.6 1.42 2.78 2.04 5.56 4.07 8.36 6.08.22.17.25.3.17.56-.67 2.05-1.35 4.12-2.03 6.19-.39 1.2-.79 2.41-1.16 3.61-.29.85.14 1.65.97 1.82.48.1.87-.09 1.25-.36 2.7-1.98 5.42-3.96 8.12-5.94.28-.2.44-.19.7.01.92.69 1.85 1.35 2.77 2.03 1.84 1.31 3.66 2.67 5.49 3.98.91.66 2.08.16 2.17-.93.03-.26-.05-.54-.13-.8-1.04-3.2-2.09-6.4-3.14-9.6-.09-.27-.05-.4.17-.57 2.79-2.01 5.56-4.04 8.33-6.06.21-.18.43-.4.55-.65.41-.9-.27-1.91-1.26-1.91zm-1.68 50.61c-2.4 0-4.36 1.95-4.36 4.35 0 .68.08 1.13.31 1.66l17.03 42.91c.6 1.5 1.8 2.78 4.05 2.78s3.45-1.28 4.05-2.78l17.03-42.91c.23-.53.3-.98.3-1.66 0-2.4-1.95-4.35-4.35-4.35-2.17 0-3.53 1.43-3.98 2.55l-13.05 34.59-13.05-34.59c-.46-1.2-1.81-2.55-3.98-2.55zm49.59-73.82c-3.99-.01-7.98 0-11.98 0h-.51c-.14-.43-.27-.81-.39-1.2-1.14-3.49-2.27-6.96-3.4-10.47-.16-.5-.39-.92-.9-1.17-.88-.39-1.84.03-2.16 1-.82 2.48-1.61 4.99-2.44 7.47-.46 1.45-.93 2.9-1.39 4.37h-12.27c-.23 0-.48-.01-.69.06-.64.17-1.02.62-1.13 1.24-.13.7.13 1.25.7 1.67 3.26 2.36 6.5 4.73 9.76 7.1.25.18.31.34.2.64-.8 2.4-1.58 4.82-2.36 7.21-.47 1.42-.93 2.83-1.39 4.22-.31 1.02.2 1.93 1.15 2.14.57.12 1.02-.11 1.46-.43 3.17-2.31 6.32-4.61 9.48-6.93.33-.23.52-.22.83 0 1.07.82 2.15 1.59 3.23 2.37 2.13 1.56 4.26 3.12 6.4 4.66 1.07.77 2.44.18 2.54-1.09.02-.31-.06-.63-.15-.93-1.23-3.74-2.45-7.47-3.68-11.2-.11-.32-.06-.48.21-.67 3.25-2.36 6.48-4.72 9.71-7.09.27-.19.51-.45.63-.74.49-1.06-.29-2.23-1.46-2.23zM191 130.41c-.67 0-1.35.23-1.73.53l-5.4 3.75-5.4-3.75c-.37-.3-1.05-.53-1.72-.53-1.65 0-2.93 1.28-2.93 2.93 0 1.2.6 1.95 1.35 2.47l6.98 4.66c.52.37 1.13.52 1.72.52.6 0 1.2-.15 1.73-.52l6.98-4.66c.75-.52 1.35-1.27 1.35-2.47 0-1.65-1.28-2.93-2.93-2.93zm-19.51 13.73c-2.4 0-4.35 1.95-4.35 4.35v41.79c0 2.41 1.95 4.36 4.35 4.36h24.24c2.17 0 3.9-1.73 3.9-3.91 0-2.17-1.73-3.9-3.9-3.9h-19.89v-13.8h14.19c2.09 0 3.82-1.73 3.82-3.83s-1.73-3.82-3.82-3.82h-14.19v-13.43h19.06c2.18 0 3.9-1.73 3.9-3.91 0-2.17-1.72-3.9-3.9-3.9h-23.41zm79.13-94.03h-17.76c-.2-.6-.37-1.15-.55-1.68-1.63-4.98-3.23-9.94-4.84-14.89-.23-.72-.57-1.32-1.29-1.65-1.24-.58-2.61.02-3.06 1.39-1.17 3.54-2.3 7.1-3.46 10.65l-2 6.18H200.22c-.32 0-.67 0-.98.09-.89.23-1.44.88-1.6 1.76-.18 1 .2 1.77 1.01 2.36 4.62 3.37 9.23 6.76 13.85 10.11.36.27.44.48.3.89-1.14 3.43-2.25 6.87-3.36 10.3-.67 1.99-1.33 3.99-1.95 5.99-.47 1.42.26 2.72 1.62 3.02.79.17 1.44-.15 2.07-.59 4.5-3.3 9-6.57 13.49-9.87.45-.32.73-.32 1.16 0 1.51 1.16 3.06 2.26 4.59 3.37 3.04 2.22 6.06 4.44 9.11 6.64 1.52 1.08 3.45.24 3.6-1.56.05-.43-.08-.91-.22-1.33-1.73-5.3-3.45-10.61-5.21-15.92-.15-.46-.08-.67.3-.94 4.62-3.35 9.22-6.72 13.8-10.08.37-.27.72-.66.91-1.07.67-1.49-.44-3.16-2.09-3.17zm.51 94.03c-2.4 0-4.35 1.95-4.35 4.35v41.79c0 2.41 1.95 4.36 4.35 4.36h24.23c2.18 0 3.9-1.73 3.9-3.91 0-2.17-1.72-3.9-3.9-3.9h-19.88v-13.8h14.18c2.1 0 3.83-1.73 3.83-3.83s-1.73-3.82-3.83-3.82h-14.18v-13.43h19.06c2.17 0 3.9-1.73 3.9-3.91 0-2.17-1.73-3.9-3.9-3.9h-23.41zm61.14-74.42c-4-.01-7.99 0-11.98 0h-.51c-.15-.43-.27-.81-.4-1.2-1.13-3.49-2.27-6.96-3.4-10.47-.16-.5-.39-.92-.9-1.17-.88-.39-1.84.03-2.16 1-.83 2.48-1.62 4.99-2.43 7.47-.47 1.45-.94 2.9-1.41 4.37h-12.26c-.23 0-.48-.01-.7.06-.62.17-1.01.62-1.11 1.24-.13.7.13 1.25.7 1.67 3.24 2.36 6.49 4.73 9.75 7.1.26.18.3.34.2.64-.79 2.4-1.58 4.82-2.36 7.21-.46 1.42-.93 2.83-1.38 4.22-.31 1.02.19 1.93 1.15 2.14.55.12 1.01-.11 1.45-.43 3.17-2.31 6.34-4.61 9.49-6.93.33-.23.51-.22.82 0 1.06.82 2.16 1.59 3.23 2.37 2.14 1.56 4.26 3.12 6.41 4.66 1.06.77 2.42.18 2.53-1.09.03-.31-.06-.63-.16-.93-1.22-3.74-2.43-7.47-3.66-11.2-.11-.32-.06-.48.21-.67 3.24-2.36 6.48-4.72 9.7-7.09.26-.19.51-.45.63-.74.49-1.06-.29-2.23-1.45-2.23zm6.63 73.82c-2.33 0-4.28 1.95-4.28 4.28v29.71l-22.21-32.19c-.75-1.12-1.95-1.8-3.45-1.8-2.33 0-4.28 1.95-4.28 4.28v43.14c0 2.32 1.95 4.28 4.28 4.28 2.32 0 4.28-1.96 4.28-4.28V161.4l22.13 31.96c.75 1.13 2.1 1.88 3.53 1.88 2.32 0 4.27-1.96 4.27-4.28v-43.14c0-2.33-1.95-4.28-4.27-4.28zm36.17-50.61h-10.7c-.12-.37-.23-.69-.34-1.03-.97-2.98-1.94-5.97-2.91-8.96-.13-.44-.34-.8-.78-1-.75-.35-1.57.01-1.84.84-.7 2.14-1.39 4.27-2.08 6.42-.4 1.24-.81 2.48-1.22 3.73h-10.49c-.2 0-.42 0-.6.05-.54.16-.86.53-.96 1.07-.11.59.11 1.06.6 1.42 2.79 2.04 5.57 4.07 8.35 6.08.22.17.28.3.18.56-.69 2.05-1.36 4.12-2.03 6.19-.39 1.2-.79 2.41-1.17 3.61-.27.85.15 1.65.98 1.82.48.1.87-.09 1.24-.36 2.72-1.98 5.43-3.96 8.13-5.94.28-.2.45-.19.71.01.91.69 1.85 1.35 2.76 2.03 1.84 1.31 3.66 2.67 5.49 3.98.92.66 2.08.16 2.17-.93.02-.26-.05-.54-.13-.8-1.04-3.2-2.09-6.4-3.15-9.6-.08-.27-.04-.4.19-.57 2.78-2.01 5.55-4.04 8.31-6.06.22-.18.44-.4.55-.65.41-.9-.26-1.91-1.26-1.91zm-1.4 50.16c-15.16 0-23.79 8.55-23.79 26.34 0 17.55 8.63 26.26 23.79 26.26 15.15 0 23.78-8.71 23.78-26.26 0-17.79-8.63-26.34-23.78-26.34zm25.29 69.5c-1.37 0-2.56.72-3.21 1.77l-9.92 15.57-9.92-15.57c-.72-1.11-1.83-1.77-3.21-1.77-2.11 0-3.81 1.71-3.81 3.81 0 .72.19 1.51.59 2.03l12.54 18.72v16.88c0 2.1 1.71 3.81 3.81 3.81s3.81-1.71 3.81-3.81v-16.88l12.54-18.72c.4-.52.59-1.31.59-2.03 0-2.1-1.71-3.81-3.81-3.81zm-25.29-24.71c-9.91 0-14.78-6.07-14.78-18.45 0-12.46 4.87-18.54 14.78-18.54 9.9 0 14.78 6.08 14.78 18.54 0 12.38-4.88 18.45-14.78 18.45zm-245.52-18.45c0 12.38-4.88 18.45-14.78 18.45-9.91 0-14.78-6.07-14.78-18.45 0-12.46 4.87-18.54 14.78-18.54 9.9 0 14.78 6.08 14.78 18.54zm17.26 69.43h-10.77l5.38-13.79 5.39 13.79zm77.89 0h-10.77l5.38-13.79 5.39 13.79zm10.64-86.91h9.9c4.88 0 6.91 3.82 6.91 7.87 0 3.98-2.03 7.81-6.68 7.81h-10.13v-15.68z"/><path fill="#30a9d4" fill-rule="evenodd" d="M183.57 361.11c0 2.1-1.71 3.81-3.81 3.81-2.09 0-3.8-1.71-3.8-3.81v-15.78h-18.74v15.78c0 2.1-1.7 3.81-3.79 3.81-2.11 0-3.81-1.71-3.81-3.81v-37.54c0-2.1 1.7-3.8 3.81-3.8 2.09 0 3.79 1.7 3.79 3.8v14.81h18.74v-14.81a3.805 3.805 0 0 1 7.61 0v37.54zm20.04-27.4c11.07 0 13.1 8.53 13.1 13.07 0 2.41 0 5.23-4 5.23h-16.18c0 4.72 3.35 6.88 7.67 6.88 2.89 0 4.91-.98 6.48-2.03.73-.46 1.25-.73 2.11-.73 1.69 0 3.09 1.38 3.09 3.09 0 1.05-.55 1.89-1.14 2.42-1.11 1.06-4.58 3.61-10.54 3.61-9.11 0-14.75-4.91-14.75-15.87 0-10.01 5.25-15.67 14.16-15.67m-6.88 12.4h12.98c0-3.2-1.84-6.34-6.1-6.34-3.79 0-6.56 2.16-6.88 6.34m31.65-8.45v15.27c0 3 1.04 5.88 5.9 5.88 4.79 0 5.83-2.88 5.83-5.88v-15.27c0-1.96 1.57-3.54 3.54-3.54s3.53 1.58 3.53 3.54v15.27c0 6.43-2.43 12.32-12.9 12.32-10.56 0-12.99-5.89-12.99-12.32v-15.27c0-1.96 1.59-3.54 3.55-3.54 1.97 0 3.54 1.58 3.54 3.54m32.1.33c1.24-2.55 4.32-4.19 7.09-4.19 1.82 0 3.34 1.49 3.34 3.34 0 1.82-1.52 3.34-3.34 3.34-4.53 0-7.09 2.88-7.09 7.27v13.63c0 1.95-1.56 3.54-3.54 3.54a3.54 3.54 0 0 1-3.54-3.54v-23.72c0-1.96 1.58-3.54 3.54-3.54 1.98 0 3.54 1.58 3.54 3.54v.33zm26.34-4.28c11.07 0 13.1 8.53 13.1 13.07 0 2.41 0 5.23-3.99 5.23h-16.19c0 4.72 3.34 6.88 7.67 6.88 2.89 0 4.91-.98 6.49-2.03.72-.46 1.25-.73 2.09-.73 1.71 0 3.08 1.38 3.08 3.09 0 1.05-.52 1.89-1.11 2.42-1.11 1.06-4.6 3.61-10.55 3.61-9.12 0-14.74-4.91-14.74-15.87 0-10.01 5.25-15.67 14.15-15.67m-6.89 12.4h13c0-3.2-1.84-6.34-6.11-6.34-3.81 0-6.54 2.16-6.89 6.34m44.17 17.43l-9.76-13.11-2.1 1.64v9.45c0 1.96-1.57 3.4-3.52 3.4-2.04 0-3.55-1.44-3.55-3.4v-40.36c0-1.97 1.51-3.4 3.55-3.4 1.95 0 3.52 1.43 3.52 3.4v23.13l11.86-9.31c.85-.66 1.51-.86 2.29-.86 1.91 0 3.41 1.5 3.41 3.4 0 .98-.45 2.04-1.31 2.7l-8.59 6.56 9.65 12.64c.52.71.71 1.45.71 2.1 0 1.91-1.51 3.4-3.41 3.4-1.24 0-2.16-.6-2.75-1.38m15.6-21.03c-.66.46-1.18.66-1.97.66-1.7 0-3.08-1.38-3.08-3.09 0-.71.27-1.51.86-2.16 1.83-2.02 5.11-4.21 10.73-4.21 8.13 0 12.99 4.01 12.99 10.96v16.77c0 1.89-1.57 3.48-3.48 3.48-1.9 0-3.47-1.59-3.47-3.48-1.78 2.83-4.66 3.81-8.58 3.81-6.43 0-10.68-4.01-10.68-9.9 0-6.09 4.91-9.24 10.61-9.24h8.58v-1.18c0-2.94-2.16-4.91-5.97-4.91-2.87 0-4.9 1.3-6.54 2.49m12.51 10.95v-1.85h-7.67c-2.88 0-4.44 1.38-4.44 3.74 0 2.49 1.76 4.01 5.43 4.01 3.48 0 6.68-2.24 6.68-5.9"/><path fill="#ff7a04" fill-rule="evenodd" d="M137.14 361.9l-8.74-8.76h.02c3.69-4.12 5.95-9.57 5.95-15.52 0-12.84-10.44-23.26-23.28-23.26-12.82 0-23.25 10.42-23.25 23.26 0 12.84 10.43 23.27 23.25 23.27 3.97 0 7.67-1.02 10.94-2.76l9.44 9.42a3.966 3.966 0 0 0 5.67 0c1.56-1.56 1.56-4.1 0-5.65zm-42.76-24.28c0-9.22 7.5-16.72 16.71-16.72 3.38 0 6.52 1.01 9.14 2.73l-9.61 15.42-3.95-5.22a3.13 3.13 0 0 0-2.48-1.24c-.7 0-1.34.23-1.9.63-1.36 1.04-1.64 3.01-.59 4.36l6.68 8.83c.6.79 1.51 1.24 2.49 1.24h.13c1.03-.03 1.97-.59 2.5-1.47l11.31-18.12c1.89 2.72 3.01 6 3.01 9.56 0 9.22-7.5 16.7-16.73 16.7-9.21 0-16.71-7.48-16.71-16.7z"/></svg>