<svg xmlns="http://www.w3.org/2000/svg" viewBox="0 0 483 109"><path fill="#30a9d4" fill-rule="evenodd" d="M428.29 108.43H54.71C24.98 108.43.78 84.24.78 54.5S24.98.57 54.71.57h373.58c29.73 0 53.93 24.19 53.93 53.93s-24.2 53.93-53.93 53.93zM76.93 76.49l-8.74-8.75h.02c3.69-4.13 5.95-9.57 5.95-15.53 0-12.84-10.44-23.26-23.28-23.26-12.82 0-23.26 10.42-23.26 23.26 0 12.84 10.44 23.27 23.26 23.27 3.97 0 7.67-1.01 10.93-2.76l9.44 9.42a3.978 3.978 0 0 0 5.68 0 3.996 3.996 0 0 0 0-5.65zM428.29 8.57H101.74v91.86h326.55c25.36 0 45.93-20.56 45.93-45.93S453.65 8.57 428.29 8.57zM50.88 68.91c-9.21 0-16.71-7.48-16.71-16.7 0-9.22 7.5-16.72 16.71-16.72 3.38 0 6.52 1.02 9.14 2.73l-9.61 15.42-3.95-5.22a3.13 3.13 0 0 0-2.48-1.24c-.7 0-1.34.23-1.9.63-1.36 1.05-1.64 3.01-.59 4.36l6.68 8.84c.59.78 1.51 1.23 2.49 1.23h.13c1.03-.03 1.96-.59 2.5-1.47L64.6 42.65c1.89 2.72 3.01 6.01 3.01 9.56 0 9.22-7.51 16.7-16.73 16.7z"/><path fill="#393939" fill-rule="evenodd" d="M433.17 69.63c-.34.84-.67 1.65-.99 2.42-.33.76-.73 1.44-1.19 2.03-.47.59-1.05 1.06-1.75 1.41-.69.34-1.58.52-2.66.52-.96 0-1.91-.08-2.85-.22v-3.45c.34.04.67.1.97.16.32.06.64.09.98.09.48 0 .88-.06 1.19-.18.31-.13.57-.3.77-.53.2-.22.38-.49.52-.81.15-.31.28-.67.4-1.08l.47-1.44-7.06-18.54h4.5l4.86 13.9h.07l4.72-13.9h4.28l-7.23 19.62zm-11.13-1h-5l-5.69-9.04-2.45 2.38v6.66h-4.1V42.92h4.1v14.62l7.42-7.53h5.04l-7.13 6.84 7.81 11.78zm-25.92-21.21l3.24-5.15h4.86l-5.11 5.15h-2.99zm-8.53 9.51c-.05-1.47-.36-2.53-.94-3.19-.57-.66-1.47-.99-2.7-.99-.69 0-1.31.13-1.87.38-.55.25-1.02.6-1.4 1.04-.38.45-.69.97-.9 1.57-.22.6-.33 1.23-.33 1.91v10.98h-4.1V50.01h3.89v2.74l.07.07c.63-1.03 1.44-1.84 2.45-2.43 1.01-.59 2.12-.88 3.35-.88 2.04 0 3.64.53 4.82 1.58 1.18 1.06 1.76 2.64 1.76 4.76v12.78h-4.1v-11.7zm-31.61 8.82l10.3-12.5h-9.58v-3.24h15.12v2.88l-10.65 12.5h11.19v3.24h-16.38v-2.88zm-2.34 3.24c-.24.04-.48.08-.72.1-.24.03-.44.04-.61.04-.84 0-1.53-.17-2.09-.5-.55-.34-.91-.93-1.08-1.77-.81.79-1.82 1.37-3 1.73-1.19.36-2.34.54-3.44.54-.84 0-1.64-.11-2.41-.34a6.49 6.49 0 0 1-2.04-1.01c-.59-.44-1.05-1.01-1.4-1.69-.35-.68-.52-1.48-.52-2.39 0-1.16.21-2.09.63-2.81.42-.72.97-1.29 1.65-1.69.69-.41 1.45-.71 2.31-.89.85-.18 1.71-.32 2.57-.41.74-.15 1.45-.25 2.13-.31.67-.06 1.26-.16 1.78-.3.51-.15.92-.37 1.22-.67.3-.3.45-.75.45-1.35 0-.53-.13-.96-.38-1.3-.25-.33-.56-.59-.93-.77-.37-.18-.79-.3-1.24-.36-.46-.06-.89-.09-1.3-.09-1.15 0-2.1.24-2.84.72-.75.48-1.17 1.22-1.26 2.23h-4.11c.07-1.2.36-2.19.87-2.99.5-.79 1.14-1.42 1.92-1.9.78-.49 1.66-.82 2.65-1.01.98-.19 1.99-.29 3.02-.29.91 0 1.81.1 2.7.29.89.19 1.69.5 2.39.93.71.44 1.28.99 1.72 1.68.43.68.64 1.52.64 2.5v9.58c0 .5.07.86.2 1.08.13.21.39.32.78.32h.43c.16 0 .36-.02.57-.07v2.84c-.14.05-.33.1-.55.16-.23.06-.47.12-.71.17zm-4.82-9.69c-.63.41-1.39.66-2.3.74-.92.09-1.83.21-2.74.38-.43.07-.85.17-1.26.3-.41.14-.77.32-1.08.54-.31.23-.56.53-.74.9-.18.38-.27.83-.27 1.35 0 .46.13.85.4 1.16.26.31.58.55.95.74.37.18.78.3 1.23.37.44.08.84.11 1.2.11.46 0 .95-.06 1.48-.18.52-.12 1.02-.32 1.49-.61s.86-.65 1.17-1.1c.31-.44.47-.99.47-1.64V59.3zm-18.47 9.33l-5.69-9.04-2.45 2.38v6.66h-4.1V42.92h4.1v14.62l7.42-7.53h5.04l-7.13 6.84 7.82 11.78h-5.01zm-16.05.36c-.24.04-.49.08-.72.1-.24.03-.45.04-.62.04-.84 0-1.53-.17-2.08-.5-.56-.34-.92-.93-1.08-1.77-.82.79-1.82 1.37-3.01 1.73-1.19.36-2.34.54-3.44.54-.84 0-1.64-.11-2.41-.34-.77-.23-1.45-.57-2.03-1.01a4.84 4.84 0 0 1-1.41-1.69c-.35-.68-.52-1.48-.52-2.39 0-1.16.21-2.09.63-2.81.42-.72.97-1.29 1.66-1.69.68-.41 1.45-.71 2.3-.89.85-.18 1.71-.32 2.57-.41.75-.15 1.46-.25 2.13-.31.67-.06 1.26-.16 1.78-.3.52-.15.92-.37 1.22-.67.3-.3.45-.75.45-1.35 0-.53-.12-.96-.37-1.3-.26-.33-.57-.59-.94-.77-.37-.18-.79-.3-1.24-.36-.46-.06-.89-.09-1.3-.09-1.15 0-2.1.24-2.84.72-.75.48-1.17 1.22-1.26 2.23h-4.11c.07-1.2.36-2.19.87-2.99.5-.79 1.14-1.42 1.92-1.9.78-.49 1.67-.82 2.65-1.01.98-.19 1.99-.29 3.02-.29.92 0 1.81.1 2.7.29.89.19 1.69.5 2.4.93.71.44 1.28.99 1.71 1.68.43.68.65 1.52.65 2.5v9.58c0 .5.06.86.19 1.08.13.21.39.32.78.32h.43c.17 0 .36-.02.58-.07v2.84c-.15.05-.34.1-.56.16-.23.06-.46.12-.7.17zm-4.83-9.69c-.62.41-1.39.66-2.3.74-.91.09-1.83.21-2.74.38-.43.07-.85.17-1.26.3-.41.14-.77.32-1.08.54-.31.23-.56.53-.74.9-.18.38-.27.83-.27 1.35 0 .46.13.85.4 1.16.26.31.58.55.95.74.37.18.78.3 1.23.37.44.08.84.11 1.2.11.46 0 .95-.06 1.48-.18s1.03-.32 1.49-.61c.47-.29.86-.65 1.17-1.1.32-.44.47-.99.47-1.64V59.3zm-5.58-11.88l3.24-5.15h4.86l-5.11 5.15h-2.99zm-25.27 18.33l10.3-12.5h-9.58v-3.24h15.12v2.88l-10.66 12.5H295v3.24h-16.38v-2.88zm-14.53.61c-.8.86-1.78 1.54-2.95 2.03-1.16.49-2.49.74-3.98.74-1.48 0-2.81-.25-3.97-.74a8.533 8.533 0 0 1-2.96-2.03c-.8-.87-1.41-1.9-1.83-3.1-.42-1.2-.63-2.52-.63-3.96 0-1.41.21-2.72.63-3.92.42-1.2 1.03-2.23 1.83-3.1.81-.86 1.79-1.54 2.96-2.03 1.16-.49 2.49-.74 3.97-.74 1.49 0 2.82.25 3.98.74 1.17.49 2.15 1.17 2.95 2.03.81.87 1.42 1.9 1.84 3.1.42 1.2.63 2.51.63 3.92 0 1.44-.21 2.76-.63 3.96-.42 1.2-1.03 2.23-1.84 3.1zm-1.94-9.43c-.21-.8-.52-1.5-.96-2.11-.43-.61-.98-1.11-1.65-1.49-.67-.39-1.46-.58-2.38-.58-.91 0-1.7.19-2.37.58-.67.38-1.23.88-1.66 1.49-.43.61-.75 1.31-.95 2.11-.21.79-.31 1.58-.31 2.37 0 .82.1 1.62.31 2.4.2.78.52 1.48.95 2.1.43.63.99 1.13 1.66 1.52.67.38 1.46.57 2.37.57.92 0 1.71-.19 2.38-.57a5.01 5.01 0 0 0 1.65-1.52c.44-.62.75-1.32.96-2.1a9.624 9.624 0 0 0 0-4.77zm-21.94 0c-.05-1.47-.36-2.53-.94-3.19-.57-.66-1.47-.99-2.7-.99-.69 0-1.32.13-1.87.38s-1.02.6-1.4 1.04c-.39.45-.69.97-.9 1.57-.22.6-.33 1.23-.33 1.91v10.98h-4.1V50.01h3.89v2.74l.07.07a6.871 6.871 0 0 1 2.45-2.43c1-.59 2.12-.88 3.34-.88 2.04 0 3.65.53 4.83 1.58 1.17 1.06 1.76 2.64 1.76 4.76v12.78h-4.1v-11.7zm-29.05 3.45c0 .72.1 1.42.3 2.09.21.67.51 1.26.92 1.77.41.5.92.9 1.55 1.2.62.3 1.37.45 2.23.45 1.2 0 2.17-.26 2.9-.77.73-.52 1.28-1.29 1.64-2.33h3.88a7.551 7.551 0 0 1-1.11 2.7c-.53.8-1.17 1.46-1.91 2s-1.58.95-2.5 1.23c-.93.27-1.89.41-2.9.41-1.46 0-2.76-.24-3.89-.72-1.13-.48-2.08-1.15-2.86-2.02-.78-.86-1.37-1.89-1.76-3.09-.4-1.2-.6-2.52-.6-3.96 0-1.32.21-2.58.63-3.76a9.648 9.648 0 0 1 1.8-3.14c.78-.9 1.72-1.61 2.83-2.14 1.1-.53 2.35-.79 3.74-.79 1.47 0 2.78.31 3.94.92 1.17.61 2.13 1.42 2.9 2.43a9.831 9.831 0 0 1 1.68 3.47c.34 1.31.43 2.66.27 4.05h-13.68zm9.16-4.57c-.23-.6-.54-1.12-.94-1.57-.39-.44-.87-.8-1.44-1.08-.56-.27-1.19-.41-1.89-.41-.72 0-1.37.13-1.96.38-.59.25-1.09.6-1.51 1.04-.42.45-.76.97-1.01 1.57-.25.6-.39 1.25-.41 1.94h9.57c-.05-.65-.18-1.27-.41-1.87zm-20.97-8.39l-3.85-5.15h3.31l2.52 3.21 2.55-3.21h3.35l-3.89 5.15h-3.99zm-20.23 12.96c0 .72.1 1.42.3 2.09.21.67.51 1.26.92 1.77.41.5.92.9 1.55 1.2.62.3 1.37.45 2.23.45 1.2 0 2.17-.26 2.9-.77.73-.52 1.28-1.29 1.64-2.33h3.88a7.551 7.551 0 0 1-1.11 2.7c-.53.8-1.17 1.46-1.91 2s-1.58.95-2.5 1.23c-.93.27-1.89.41-2.9.41-1.46 0-2.76-.24-3.89-.72-1.13-.48-2.08-1.15-2.86-2.02-.78-.86-1.37-1.89-1.76-3.09-.4-1.2-.6-2.52-.6-3.96 0-1.32.21-2.58.63-3.76a9.648 9.648 0 0 1 1.8-3.14c.78-.9 1.72-1.61 2.83-2.14 1.1-.53 2.35-.79 3.74-.79 1.47 0 2.78.31 3.94.92 1.17.61 2.13 1.42 2.9 2.43a9.831 9.831 0 0 1 1.68 3.47c.34 1.31.43 2.66.27 4.05h-13.68zm9.16-4.57c-.23-.6-.54-1.12-.94-1.57-.39-.44-.87-.8-1.44-1.08-.56-.27-1.19-.41-1.89-.41-.72 0-1.37.13-1.96.38-.59.25-1.09.6-1.51 1.04-.42.45-.76.97-1.01 1.57-.25.6-.39 1.25-.41 1.94h9.57c-.05-.65-.18-1.27-.41-1.87zm-6.36-8.39l-3.85-5.15h3.31l2.52 3.21 2.56-3.21h3.35l-3.89 5.15h-4zm-19.76 21.21l-6.77-18.62h4.47l4.71 14.3h.07l4.54-14.3h4.25l-6.66 18.62h-4.61zm-11.74-3.35a11.388 11.388 0 0 1-3.86 2.9c-1.53.7-3.25 1.06-5.17 1.06s-3.64-.36-5.17-1.06c-1.52-.71-2.81-1.68-3.87-2.9-1.05-1.23-1.86-2.65-2.43-4.29-.56-1.63-.84-3.37-.84-5.22 0-1.82.28-3.55.84-5.18.57-1.63 1.38-3.06 2.43-4.29 1.06-1.22 2.35-2.19 3.87-2.91 1.53-.72 3.25-1.08 5.17-1.08s3.64.36 5.17 1.08c1.52.72 2.81 1.69 3.86 2.91 1.06 1.23 1.87 2.66 2.43 4.29.57 1.63.85 3.36.85 5.18 0 1.85-.28 3.59-.85 5.22-.56 1.64-1.37 3.06-2.43 4.29zm-1.67-13.11c-.3-1.17-.76-2.22-1.38-3.15a7.01 7.01 0 0 0-2.44-2.21c-.99-.55-2.17-.83-3.54-.83s-2.55.28-3.55.83c-.99.55-1.8 1.29-2.43 2.21-.62.93-1.08 1.98-1.38 3.15-.3 1.18-.45 2.38-.45 3.6 0 1.23.15 2.43.45 3.61.3 1.17.76 2.22 1.38 3.14.63.93 1.44 1.67 2.43 2.22 1 .55 2.18.83 3.55.83 1.37 0 2.55-.28 3.54-.83 1-.55 1.81-1.29 2.44-2.22.62-.92 1.08-1.97 1.38-3.14.3-1.18.45-2.38.45-3.61 0-1.22-.15-2.42-.45-3.6zm51.03 1.44h.07c.12-.5.36-.99.7-1.47.35-.48.77-.92 1.26-1.32.5-.39 1.04-.71 1.64-.95.6-.24 1.21-.36 1.84-.36.48 0 .81.01.99.04.18.02.36.04.56.07v3.96c-.29-.05-.59-.09-.89-.13-.3-.04-.59-.05-.88-.05-.69 0-1.35.13-1.96.41-.61.28-1.15.69-1.6 1.23-.46.54-.82 1.2-1.08 1.99-.27.8-.4 1.71-.4 2.74v8.86h-4.1V50.01h3.85v3.6zm200.45 15.02h-4.11V50.01h4.11v18.62z"/></svg>