<svg xmlns="http://www.w3.org/2000/svg" viewBox="0 0 500 500"><path fill="#fff" fill-rule="evenodd" d="M498.05 249.77c0 136.85-110.94 247.8-247.78 247.8-136.86 0-247.79-110.95-247.79-247.8C2.48 112.9 113.41 1.96 250.27 1.96c136.84 0 247.78 110.94 247.78 247.81z"/><path fill="#30a9d4" fill-rule="evenodd" d="M250.27 499.06c-66.61 0-129.21-25.92-176.29-73.01C26.88 378.96.95 316.36.95 249.77c0-66.6 25.93-129.2 73.03-176.3C121.06 26.38 183.66.45 250.27.45c66.59 0 129.19 25.93 176.28 73.02 47.1 47.1 73.03 109.7 73.03 176.3 0 66.59-25.93 129.19-73.03 176.28-47.09 47.09-109.69 73.01-176.28 73.01zm0-488.99c-64.04 0-124.22 24.95-169.5 70.19-45.27 45.28-70.2 105.48-70.2 169.51 0 64.01 24.93 124.2 70.2 169.49 45.28 45.26 105.46 70.2 169.5 70.2 64.02 0 124.21-24.94 169.48-70.2 45.27-45.29 70.19-105.48 70.19-169.49 0-64.03-24.92-124.23-70.19-169.51-45.27-45.24-105.46-70.19-169.48-70.19zM465.16 317c7.75-13.3 11.96-44.55 11.96-70.03 0-125.3-101.58-225.43-226.85-225.43-125.3 0-226.87 99.44-226.87 224.71 0 25.5 4.21 57.45 11.96 70.75h429.8zm-261.24 84.3c0 2.34-1.9 4.24-4.23 4.24a4.24 4.24 0 0 1-4.23-4.24v-17.54h-20.83v17.54c0 2.34-1.89 4.24-4.21 4.24-2.34 0-4.23-1.9-4.23-4.24v-41.72c0-2.33 1.89-4.23 4.23-4.23 2.32 0 4.21 1.9 4.21 4.23v16.46h20.83v-16.46c0-2.33 1.9-4.23 4.23-4.23 2.33 0 4.23 1.9 4.23 4.23v41.72zm22.27-30.44c12.31 0 14.57 9.47 14.57 14.51 0 2.69 0 5.82-4.45 5.82h-17.98c0 5.24 3.71 7.65 8.52 7.65 3.21 0 5.45-1.09 7.21-2.26.8-.51 1.39-.81 2.33-.81 1.89 0 3.44 1.53 3.44 3.43 0 1.17-.61 2.1-1.26 2.69-1.24 1.18-5.1 4.01-11.72 4.01-10.12 0-16.39-5.45-16.39-17.63 0-11.13 5.83-17.41 15.73-17.41m-7.64 13.77h14.42c0-3.56-2.04-7.05-6.78-7.05-4.21 0-7.29 2.4-7.64 7.05m35.18-9.39v16.98c0 3.33 1.15 6.53 6.56 6.53 5.32 0 6.47-3.2 6.47-6.53v-16.98c0-2.18 1.75-3.93 3.93-3.93 2.19 0 3.93 1.75 3.93 3.93v16.98c0 7.14-2.7 13.68-14.33 13.68-11.75 0-14.45-6.54-14.45-13.68v-16.98c0-2.18 1.77-3.93 3.95-3.93a3.92 3.92 0 0 1 3.94 3.93m35.67.37c1.38-2.83 4.8-4.66 7.88-4.66 2.03 0 3.71 1.66 3.71 3.71 0 2.02-1.68 3.71-3.71 3.71-5.03 0-7.88 3.21-7.88 8.08v15.15c0 2.17-1.74 3.94-3.93 3.94-2.18 0-3.93-1.77-3.93-3.94v-26.36c0-2.18 1.75-3.93 3.93-3.93 2.19 0 3.93 1.75 3.93 3.93v.37zm29.28-4.75c12.3 0 14.56 9.47 14.56 14.51 0 2.69 0 5.82-4.43 5.82H310.8c0 5.24 3.73 7.65 8.54 7.65 3.21 0 5.45-1.09 7.21-2.26.8-.51 1.39-.81 2.32-.81 1.91 0 3.42 1.53 3.42 3.43 0 1.17-.57 2.1-1.23 2.69-1.24 1.18-5.11 4.01-11.72 4.01-10.14 0-16.38-5.45-16.38-17.63 0-11.13 5.83-17.41 15.72-17.41m-7.65 13.77h14.43c0-3.56-2.04-7.05-6.78-7.05-4.23 0-7.27 2.4-7.65 7.05m49.09 19.38l-10.86-14.57-2.33 1.81v10.51c0 2.18-1.74 3.78-3.92 3.78-2.26 0-3.94-1.6-3.94-3.78V356.9c0-2.19 1.68-3.78 3.94-3.78 2.18 0 3.92 1.59 3.92 3.78v25.71l13.19-10.35c.94-.73 1.67-.95 2.53-.95 2.13 0 3.8 1.66 3.8 3.78 0 1.09-.5 2.26-1.45 3l-9.55 7.28 10.72 14.05c.58.79.79 1.61.79 2.34 0 2.12-1.68 3.78-3.79 3.78-1.38 0-2.4-.66-3.05-1.53m17.34-23.38c-.74.51-1.32.73-2.2.73a3.42 3.42 0 0 1-3.42-3.43c0-.79.29-1.67.96-2.4 2.03-2.25 5.67-4.67 11.92-4.67 9.04 0 14.44 4.45 14.44 12.17v18.64c0 2.1-1.75 3.87-3.87 3.87-2.11 0-3.85-1.77-3.85-3.87-1.98 3.14-5.18 4.23-9.55 4.23-7.14 0-11.87-4.45-11.87-11 0-6.76 5.47-10.27 11.79-10.27h9.54v-1.31c0-3.27-2.4-5.45-6.63-5.45-3.19 0-5.45 1.44-7.26 2.76m13.89 12.17v-2.05h-8.52c-3.2 0-4.94 1.53-4.94 4.15 0 2.77 1.96 4.46 6.05 4.46 3.85 0 7.41-2.5 7.41-6.56M77.23 188.26c0-19.77 9.59-29.27 26.43-29.27 16.85 0 26.44 9.5 26.44 29.27 0 19.51-9.59 29.18-26.44 29.18-16.84 0-26.43-9.67-26.43-29.18zm10.01 0c0 13.76 5.41 20.51 16.42 20.51 11.01 0 16.43-6.75 16.43-20.51 0-13.85-5.42-20.6-16.43-20.6s-16.42 6.75-16.42 20.6zm64.33 25.6l-18.93-47.7c-.25-.58-.34-1.08-.34-1.84 0-2.67 2.17-4.83 4.84-4.83 2.42 0 3.92 1.5 4.42 2.83l14.51 38.45 14.51-38.45c.5-1.25 2-2.83 4.42-2.83 2.67 0 4.84 2.16 4.84 4.83 0 .76-.08 1.26-.33 1.84l-18.94 47.7c-.66 1.66-2 3.08-4.5 3.08s-3.83-1.42-4.5-3.08zm43.76-30.11h15.77c2.33 0 4.25 1.92 4.25 4.26 0 2.33-1.92 4.25-4.25 4.25h-15.77v15.34h22.1a4.31 4.31 0 0 1 4.34 4.34 4.31 4.31 0 0 1-4.34 4.34H190.5c-2.67 0-4.84-2.17-4.84-4.84v-46.45c0-2.67 2.17-4.84 4.84-4.84h26.02c2.41 0 4.33 1.92 4.33 4.34s-1.92 4.34-4.33 4.34h-21.19v14.92zm7.01-27.68l-7.75-5.17c-.84-.59-1.5-1.42-1.5-2.75 0-1.84 1.41-3.26 3.25-3.26.75 0 1.5.25 1.92.59l6 4.17 6-4.17c.42-.34 1.17-.59 1.92-.59 1.83 0 3.25 1.42 3.25 3.26 0 1.33-.66 2.16-1.5 2.75l-7.75 5.17c-.59.42-1.26.58-1.92.58-.67 0-1.34-.16-1.92-.58zm35.34 38.69v17.35c0 2.66-2.17 4.83-4.84 4.83s-4.84-2.17-4.84-4.83v-47.12c0-2.67 2.17-4.84 4.84-4.84h15.93c11.25 0 17.59 8.01 17.59 17.43 0 7.93-4.83 15.6-12.84 16.6l12.34 15.01c.75 1 1 2 1 2.92a4.84 4.84 0 0 1-4.83 4.83c-1.42 0-2.93-.66-3.76-1.75l-15.18-20.43h-5.41zm6.58-38.69l-7.75-5.17c-.84-.59-1.5-1.42-1.5-2.75 0-1.84 1.42-3.26 3.25-3.26.75 0 1.5.25 1.92.59l6 4.17 6-4.17c.42-.34 1.17-.59 1.93-.59 1.83 0 3.25 1.42 3.25 3.26 0 1.33-.67 2.16-1.5 2.75l-7.76 5.17c-.58.42-1.25.58-1.92.58-.66 0-1.33-.16-1.92-.58zm-6.58 12.76v17.43h11.25c5.18 0 7.43-4.26 7.43-8.68 0-4.5-2.25-8.75-7.68-8.75h-11zm46.16 14.92h15.77c2.33 0 4.25 1.92 4.25 4.26 0 2.33-1.92 4.25-4.25 4.25h-15.77v15.34h22.1a4.31 4.31 0 0 1 4.34 4.34 4.31 4.31 0 0 1-4.34 4.34h-26.93c-2.67 0-4.84-2.17-4.84-4.84v-46.45c0-2.67 2.17-4.84 4.84-4.84h26.02c2.41 0 4.33 1.92 4.33 4.34s-1.92 4.34-4.33 4.34h-21.19v14.92zm75.24-19.51v47.95c0 2.58-2.17 4.75-4.75 4.75-1.59 0-3.09-.83-3.92-2.08l-24.6-35.53v32.86c0 2.58-2.17 4.75-4.75 4.75-2.59 0-4.76-2.17-4.76-4.75v-47.95c0-2.59 2.17-4.75 4.76-4.75 1.66 0 3 .75 3.83 2l24.68 35.77v-33.02c0-2.59 2.17-4.75 4.76-4.75 2.58 0 4.75 2.16 4.75 4.75zm7.46 24.02c0-19.77 9.59-29.27 26.43-29.27 16.85 0 26.44 9.5 26.44 29.27 0 19.51-9.59 29.18-26.44 29.18-16.84 0-26.43-9.67-26.43-29.18zm10.01 0c0 13.76 5.42 20.51 16.42 20.51 11.01 0 16.43-6.75 16.43-20.51 0-13.85-5.42-20.6-16.43-20.6-11 0-16.42 6.75-16.42 20.6zm-301.7 97.68c-2.12 0-3.8-1.68-3.8-3.8 0-.8.29-1.68.73-2.26l24.52-35.62H76.23c-2.05 0-3.72-1.68-3.72-3.72 0-2.05 1.67-3.72 3.72-3.72h27.59c2.05 0 3.72 1.67 3.72 3.72 0 .65-.14 1.38-.65 2.11l-24.46 35.7h22.27c2.11 0 3.79 1.68 3.79 3.79 0 2.12-1.68 3.8-3.79 3.8H74.85zm49.61-12.78l-4.45 10.59c-.66 1.53-2.05 2.77-3.94 2.77-2.27 0-4.17-1.9-4.17-4.16 0-.44.08-1.02.3-1.53l17.22-41.97c.44-1.02 1.6-2.63 3.87-2.63 2.26 0 3.43 1.61 3.87 2.63l17.23 41.97c.21.51.29 1.09.29 1.53 0 2.26-1.9 4.16-4.16 4.16-1.9 0-3.29-1.24-3.94-2.77l-4.46-10.59h-17.66zm3.21-43.21l6.21-7.88c1.01-1.31 2.91-1.24 4.37.22 1.61 1.53 1.46 3.28.29 4.38l-7.15 6.57c-1.24 1.09-2.41.87-3.36 0-1.16-1.1-1.16-2.41-.36-3.29zm5.62 20.15l-5.99 15.33h11.98l-5.99-15.33zm34.99 7.08l17.52-19.56c.87-.95 1.96-1.39 3.06-1.39 2.26 0 4.09 1.82 4.09 4.09 0 1.17-.44 2.04-1.1 2.77l-13.72 14.89 16.13 21.97c.51.66.81 1.54.81 2.41 0 2.26-1.91 4.16-4.16 4.16-1.76 0-2.85-1.02-3.44-1.82l-15.03-20.81-4.16 4.38v14.02c0 2.33-1.9 4.23-4.24 4.23-2.33 0-4.23-1.9-4.23-4.23v-41.83c0-2.33 1.9-4.23 4.23-4.23 2.34 0 4.24 1.9 4.24 4.23v16.72zm42.75 15.98l-4.45 10.59c-.66 1.53-2.05 2.77-3.94 2.77-2.26 0-4.16-1.9-4.16-4.16 0-.44.07-1.02.29-1.53l17.22-41.97c.44-1.02 1.61-2.63 3.87-2.63 2.27 0 3.43 1.61 3.87 2.63l17.23 41.97c.22.51.29 1.09.29 1.53 0 2.26-1.9 4.16-4.16 4.16-1.9 0-3.29-1.24-3.94-2.77l-4.46-10.59h-17.66zm8.83-23.06l-5.98 15.33h11.97l-5.99-15.33zm28.71 35.84c-2.12 0-3.8-1.68-3.8-3.8 0-.8.29-1.68.73-2.26l24.52-35.62h-20.07c-2.04 0-3.72-1.68-3.72-3.72 0-2.05 1.68-3.72 3.72-3.72h27.59c2.05 0 3.72 1.67 3.72 3.72 0 .65-.14 1.38-.65 2.11l-24.45 35.7h22.26c2.12 0 3.8 1.68 3.8 3.79 0 2.12-1.68 3.8-3.8 3.8h-29.85zm75.79-45.55v41.97c0 2.26-1.89 4.16-4.16 4.16-1.38 0-2.7-.73-3.43-1.82l-21.53-31.1v28.76c0 2.26-1.9 4.16-4.16 4.16-2.26 0-4.16-1.9-4.16-4.16v-41.97c0-2.26 1.9-4.16 4.16-4.16 1.46 0 2.62.66 3.36 1.75l21.6 31.32v-28.91c0-2.26 1.9-4.16 4.16-4.16 2.27 0 4.16 1.9 4.16 4.16zm8.49-10.44l6.2-7.88c1.02-1.31 2.92-1.24 4.38.22 1.6 1.53 1.46 3.28.29 4.38l-7.15 6.57c-1.24 1.09-2.41.87-3.36 0-1.17-1.1-1.17-2.41-.36-3.29zm8.54 52.34c0 2.33-1.9 4.23-4.24 4.23-2.34 0-4.23-1.9-4.23-4.23v-41.83c0-2.33 1.89-4.23 4.23-4.23 2.34 0 4.24 1.9 4.24 4.23v41.83zm17.16-25.11l17.52-19.56c.87-.95 1.97-1.39 3.06-1.39 2.27 0 4.09 1.82 4.09 4.09 0 1.17-.44 2.04-1.09 2.77l-13.73 14.89 16.14 21.97c.5.66.8 1.54.8 2.41 0 2.26-1.9 4.16-4.16 4.16-1.76 0-2.85-1.02-3.44-1.82l-15.03-20.81-4.16 4.38v14.02c0 2.33-1.9 4.23-4.23 4.23a4.24 4.24 0 0 1-4.24-4.23v-41.83c0-2.33 1.9-4.23 4.24-4.23 2.33 0 4.23 1.9 4.23 4.23v16.72zm47.94-1.68l11.03-17.3a4.178 4.178 0 0 1 3.57-1.97c2.33 0 4.23 1.9 4.23 4.23 0 .81-.21 1.68-.65 2.27l-13.94 20.8v18.76c0 2.33-1.9 4.23-4.24 4.23-2.33 0-4.23-1.9-4.23-4.23v-18.76l-13.94-20.8c-.44-.59-.66-1.46-.66-2.27 0-2.33 1.9-4.23 4.24-4.23 1.53 0 2.77.73 3.57 1.97l11.02 17.3zM241.8 55.64c.76-2.3 1.5-4.6 2.23-6.87 1.29-3.95 2.55-7.89 3.85-11.83.5-1.53 2.02-2.19 3.4-1.54.8.36 1.18 1.02 1.43 1.83 1.8 5.5 3.57 11.01 5.38 16.54.2.6.39 1.21.61 1.87H278.44c1.84.01 3.07 1.87 2.33 3.53-.22.46-.6.89-1.02 1.18-5.09 3.74-10.2 7.48-15.33 11.21-.43.3-.5.53-.34 1.04 1.96 5.91 3.87 11.8 5.79 17.7.16.46.3 1 .25 1.48-.17 2-2.32 2.93-4 1.72-3.39-2.44-6.75-4.9-10.13-7.37-1.7-1.24-3.42-2.45-5.1-3.74-.48-.37-.79-.37-1.29 0-4.98 3.66-9.99 7.3-14.99 10.96-.7.49-1.43.84-2.3.66-1.52-.34-2.32-1.78-1.81-3.36.7-2.22 1.43-4.44 2.17-6.65 1.24-3.82 2.47-7.64 3.74-11.45.16-.46.06-.69-.33-.99-5.14-3.73-10.26-7.49-15.4-11.23-.9-.66-1.32-1.52-1.13-2.63.19-.98.8-1.7 1.79-1.96.34-.1.73-.1 1.08-.1h19.38zm130.65 47.59c.46-1.39.91-2.77 1.36-4.14.77-2.39 1.53-4.76 2.31-7.13.3-.92 1.2-1.33 2.05-.94.48.22.71.63.86 1.11 1.08 3.32 2.16 6.65 3.24 9.96l.37 1.14h11.9c1.11 0 1.85 1.13 1.39 2.13-.11.27-.36.52-.6.71-3.07 2.25-6.15 4.51-9.24 6.74-.25.2-.3.34-.21.64 1.18 3.56 2.34 7.12 3.5 10.67.09.29.16.6.14.89-.09 1.2-1.39 1.76-2.41 1.04-2.03-1.46-4.06-2.98-6.1-4.43-1.02-.76-2.06-1.5-3.07-2.26-.29-.22-.48-.24-.78-.02-3.01 2.21-6.02 4.41-9.05 6.61-.41.3-.84.51-1.37.41-.92-.2-1.39-1.08-1.1-2.03.43-1.34.87-2.67 1.31-4.01.75-2.3 1.49-4.6 2.26-6.88.1-.29.04-.43-.2-.63-3.1-2.23-6.19-4.49-9.29-6.75-.54-.4-.79-.92-.67-1.58.11-.6.48-1.02 1.07-1.19.21-.06.45-.06.67-.06h11.66zm-255.52 0c.45-1.39.89-2.77 1.34-4.14.78-2.39 1.53-4.76 2.31-7.13.31-.92 1.22-1.33 2.06-.94.47.22.7.63.86 1.11 1.07 3.32 2.15 6.65 3.23 9.96.12.37.25.74.38 1.14h11.9c1.11 0 1.85 1.13 1.4 2.13-.13.27-.38.52-.61.71-3.08 2.25-6.16 4.51-9.25 6.74-.25.2-.3.34-.2.64 1.17 3.56 2.33 7.12 3.49 10.67.1.29.18.6.15.89-.1 1.2-1.4 1.76-2.41 1.04-2.04-1.46-4.06-2.98-6.1-4.43-1.02-.76-2.07-1.5-3.08-2.26-.29-.22-.47-.24-.78-.02-3 2.21-6.02 4.41-9.03 6.61-.42.3-.85.51-1.39.41-.92-.2-1.4-1.08-1.08-2.03.42-1.34.86-2.67 1.3-4.01.75-2.3 1.5-4.6 2.25-6.88.09-.29.06-.43-.19-.63-3.1-2.23-6.2-4.49-9.29-6.75-.55-.4-.79-.92-.67-1.58.11-.6.48-1.02 1.07-1.19.21-.06.45-.06.66-.06h11.68zm204.26-25.79c.52-1.63 1.04-3.25 1.56-4.86.91-2.76 1.79-5.54 2.7-8.31.36-1.07 1.43-1.54 2.41-1.1.56.27.82.74 1 1.3 1.26 3.9 2.52 7.75 3.78 11.63.14.43.28.86.44 1.34h.57c4.43 0 8.87-.01 13.31 0 1.3 0 2.16 1.3 1.62 2.48-.14.31-.41.61-.7.82-3.58 2.64-7.18 5.26-10.79 7.88-.3.21-.35.39-.23.74 1.37 4.14 2.72 8.3 4.07 12.46.11.32.21.68.18 1.02-.13 1.42-1.64 2.08-2.81 1.22-2.4-1.71-4.75-3.45-7.13-5.18-1.19-.87-2.41-1.73-3.58-2.64-.35-.24-.56-.26-.92 0-3.51 2.59-7.03 5.13-10.54 7.7-.5.37-1 .61-1.62.48-1.07-.23-1.62-1.24-1.28-2.37.51-1.55 1.03-3.12 1.53-4.69.87-2.66 1.75-5.35 2.63-8.02.11-.33.06-.51-.23-.7-3.62-2.64-7.23-5.28-10.83-7.9-.64-.47-.92-1.08-.78-1.86.12-.69.55-1.19 1.24-1.37.25-.08.51-.07.77-.07h13.63zm-154.69 0c.52-1.63 1.04-3.25 1.55-4.86.92-2.76 1.8-5.54 2.72-8.31.35-1.07 1.41-1.54 2.4-1.1.56.27.82.74.99 1.3 1.26 3.9 2.52 7.75 3.78 11.63.14.43.29.86.44 1.34h.57c4.44 0 8.88-.01 13.32 0 1.29 0 2.16 1.3 1.62 2.48-.14.31-.41.61-.7.82-3.59 2.64-7.18 5.26-10.8 7.88-.3.21-.36.39-.23.74 1.37 4.14 2.72 8.3 4.09 12.46.1.32.19.68.17 1.02-.12 1.42-1.64 2.08-2.82 1.22-2.38-1.71-4.75-3.45-7.12-5.18-1.2-.87-2.41-1.73-3.59-2.64-.34-.24-.56-.26-.92 0-3.51 2.59-7.02 5.13-10.54 7.7-.49.37-.99.61-1.62.48-1.06-.23-1.63-1.24-1.28-2.37.51-1.55 1.03-3.12 1.54-4.69.87-2.66 1.74-5.35 2.62-8.02.13-.33.07-.51-.22-.7-3.61-2.64-7.22-5.28-10.84-7.9-.64-.47-.92-1.08-.78-1.86.12-.69.55-1.19 1.25-1.37.24-.08.52-.07.78-.07H166.5z"/><path fill="#ff7a04" fill-rule="evenodd" d="M152.32 402.17l-9.72-9.72h.03c4.1-4.58 6.61-10.64 6.61-17.26 0-14.27-11.61-25.85-25.88-25.85-14.24 0-25.84 11.58-25.84 25.85 0 14.27 11.6 25.87 25.84 25.87 4.41 0 8.53-1.13 12.16-3.07l10.49 10.47a4.413 4.413 0 0 0 6.31 0 4.46 4.46 0 0 0 0-6.29zm-47.53-26.98c0-10.24 8.34-18.58 18.57-18.58 3.76 0 7.26 1.13 10.16 3.04l-10.68 17.14-4.39-5.81a3.472 3.472 0 0 0-2.76-1.37c-.77 0-1.49.24-2.1.7-1.52 1.16-1.83 3.34-.67 4.84l7.43 9.82c.66.87 1.68 1.38 2.77 1.38h.14c1.15-.04 2.19-.67 2.78-1.64l12.57-20.14c2.11 3.03 3.35 6.67 3.35 10.62 0 10.25-8.34 18.57-18.6 18.57-10.23 0-18.57-8.32-18.57-18.57z"/></svg>