<svg xmlns="http://www.w3.org/2000/svg" xmlns:xlink="http://www.w3.org/1999/xlink" width="256" zoomAndPan="magnify" viewBox="0 0 192 191.999996" height="256" preserveAspectRatio="xMidYMid meet" version="1.0"><path fill="#eeeeee" d="M 192 96 C 192 97.570312 191.960938 99.140625 191.882812 100.710938 C 191.808594 102.28125 191.691406 103.847656 191.539062 105.410156 C 191.382812 106.972656 191.191406 108.53125 190.960938 110.085938 C 190.730469 111.640625 190.460938 113.1875 190.15625 114.730469 C 189.847656 116.269531 189.503906 117.800781 189.121094 119.324219 C 188.742188 120.851562 188.324219 122.363281 187.867188 123.867188 C 187.410156 125.371094 186.917969 126.863281 186.386719 128.339844 C 185.859375 129.820312 185.292969 131.285156 184.691406 132.738281 C 184.089844 134.1875 183.453125 135.625 182.78125 137.046875 C 182.109375 138.464844 181.40625 139.867188 180.664062 141.253906 C 179.921875 142.640625 179.148438 144.007812 178.34375 145.355469 C 177.535156 146.703125 176.695312 148.027344 175.820312 149.335938 C 174.949219 150.640625 174.042969 151.925781 173.109375 153.1875 C 172.171875 154.449219 171.207031 155.6875 170.210938 156.902344 C 169.210938 158.117188 168.1875 159.304688 167.132812 160.46875 C 166.078125 161.632812 164.992188 162.769531 163.882812 163.882812 C 162.769531 164.992188 161.632812 166.078125 160.46875 167.132812 C 159.304688 168.1875 158.117188 169.210938 156.902344 170.210938 C 155.6875 171.207031 154.449219 172.171875 153.1875 173.109375 C 151.925781 174.042969 150.640625 174.949219 149.335938 175.820312 C 148.027344 176.695312 146.703125 177.535156 145.355469 178.34375 C 144.007812 179.148438 142.640625 179.921875 141.253906 180.664062 C 139.867188 181.40625 138.464844 182.109375 137.046875 182.78125 C 135.625 183.453125 134.1875 184.089844 132.738281 184.691406 C 131.285156 185.292969 129.820312 185.859375 128.339844 186.386719 C 126.863281 186.917969 125.371094 187.410156 123.867188 187.867188 C 122.363281 188.324219 120.851562 188.742188 119.324219 189.121094 C 117.800781 189.503906 116.269531 189.847656 114.730469 190.15625 C 113.1875 190.460938 111.640625 190.730469 110.085938 190.960938 C 108.53125 191.191406 106.972656 191.382812 105.410156 191.539062 C 103.847656 191.691406 102.28125 191.808594 100.710938 191.882812 C 99.140625 191.960938 97.570312 192 96 192 C 94.429688 192 92.859375 191.960938 91.289062 191.882812 C 89.71875 191.808594 88.152344 191.691406 86.589844 191.539062 C 85.027344 191.382812 83.46875 191.191406 81.914062 190.960938 C 80.359375 190.730469 78.8125 190.460938 77.269531 190.15625 C 75.730469 189.847656 74.199219 189.503906 72.675781 189.121094 C 71.148438 188.742188 69.636719 188.324219 68.132812 187.867188 C 66.628906 187.410156 65.136719 186.917969 63.660156 186.386719 C 62.179688 185.859375 60.714844 185.292969 59.261719 184.691406 C 57.8125 184.089844 56.375 183.453125 54.953125 182.78125 C 53.535156 182.109375 52.132812 181.40625 50.746094 180.664062 C 49.359375 179.921875 47.992188 179.148438 46.644531 178.34375 C 45.296875 177.535156 43.972656 176.695312 42.664062 175.820312 C 41.359375 174.949219 40.074219 174.042969 38.8125 173.109375 C 37.550781 172.171875 36.3125 171.207031 35.097656 170.210938 C 33.882812 169.210938 32.695312 168.1875 31.53125 167.132812 C 30.367188 166.078125 29.230469 164.992188 28.117188 163.882812 C 27.007812 162.769531 25.921875 161.632812 24.867188 160.46875 C 23.8125 159.304688 22.789062 158.117188 21.789062 156.902344 C 20.792969 155.6875 19.828125 154.449219 18.890625 153.1875 C 17.957031 151.925781 17.050781 150.640625 16.179688 149.335938 C 15.304688 148.027344 14.464844 146.703125 13.65625 145.355469 C 12.851562 144.007812 12.078125 142.640625 11.335938 141.253906 C 10.59375 139.867188 9.890625 138.464844 9.21875 137.046875 C 8.546875 135.625 7.910156 134.1875 7.308594 132.738281 C 6.707031 131.285156 6.140625 129.820312 5.613281 128.339844 C 5.082031 126.863281 4.589844 125.371094 4.132812 123.867188 C 3.675781 122.363281 3.257812 120.851562 2.878906 119.324219 C 2.496094 117.800781 2.152344 116.269531 1.84375 114.730469 C 1.539062 113.1875 1.269531 111.640625 1.039062 110.085938 C 0.808594 108.53125 0.617188 106.972656 0.460938 105.410156 C 0.308594 103.847656 0.191406 102.28125 0.117188 100.710938 C 0.0390625 99.140625 0 97.570312 0 96 C 0 94.429688 0.0390625 92.859375 0.117188 91.289062 C 0.191406 89.71875 0.308594 88.152344 0.460938 86.589844 C 0.617188 85.027344 0.808594 83.46875 1.039062 81.914062 C 1.269531 80.359375 1.539062 78.8125 1.84375 77.269531 C 2.152344 75.730469 2.496094 74.199219 2.878906 72.675781 C 3.257812 71.148438 3.675781 69.636719 4.132812 68.132812 C 4.589844 66.628906 5.082031 65.136719 5.613281 63.660156 C 6.140625 62.179688 6.707031 60.714844 7.308594 59.261719 C 7.910156 57.8125 8.546875 56.375 9.21875 54.953125 C 9.890625 53.535156 10.59375 52.132812 11.335938 50.746094 C 12.078125 49.359375 12.851562 47.992188 13.65625 46.644531 C 14.464844 45.296875 15.304688 43.972656 16.179688 42.664062 C 17.050781 41.359375 17.957031 40.074219 18.890625 38.8125 C 19.828125 37.550781 20.792969 36.3125 21.789062 35.097656 C 22.789062 33.882812 23.8125 32.695312 24.867188 31.53125 C 25.921875 30.367188 27.007812 29.230469 28.117188 28.117188 C 29.230469 27.007812 30.367188 25.921875 31.53125 24.867188 C 32.695312 23.8125 33.882812 22.789062 35.097656 21.789062 C 36.3125 20.792969 37.550781 19.828125 38.8125 18.890625 C 40.074219 17.957031 41.359375 17.050781 42.664062 16.179688 C 43.972656 15.304688 45.296875 14.464844 46.644531 13.65625 C 47.992188 12.851562 49.359375 12.078125 50.746094 11.335938 C 52.132812 10.59375 53.535156 9.890625 54.953125 9.21875 C 56.375 8.546875 57.8125 7.910156 59.261719 7.308594 C 60.714844 6.707031 62.179688 6.140625 63.660156 5.613281 C 65.136719 5.082031 66.628906 4.589844 68.132812 4.132812 C 69.636719 3.675781 71.148438 3.257812 72.675781 2.878906 C 74.199219 2.496094 75.730469 2.152344 77.269531 1.84375 C 78.8125 1.539062 80.359375 1.269531 81.914062 1.039062 C 83.46875 0.808594 85.027344 0.617188 86.589844 0.460938 C 88.152344 0.308594 89.71875 0.191406 91.289062 0.117188 C 92.859375 0.0390625 94.429688 0 96 0 C 97.570312 0 99.140625 0.0390625 100.710938 0.117188 C 102.28125 0.191406 103.847656 0.308594 105.410156 0.460938 C 106.972656 0.617188 108.53125 0.808594 110.085938 1.039062 C 111.640625 1.269531 113.1875 1.539062 114.730469 1.84375 C 116.269531 2.152344 117.800781 2.496094 119.324219 2.878906 C 120.851562 3.257812 122.363281 3.675781 123.867188 4.132812 C 125.371094 4.589844 126.863281 5.082031 128.339844 5.613281 C 129.820312 6.140625 131.285156 6.707031 132.738281 7.308594 C 134.1875 7.910156 135.625 8.546875 137.046875 9.21875 C 138.464844 9.890625 139.867188 10.59375 141.253906 11.335938 C 142.640625 12.078125 144.007812 12.851562 145.355469 13.65625 C 146.703125 14.464844 148.027344 15.304688 149.335938 16.179688 C 150.640625 17.050781 151.925781 17.957031 153.1875 18.890625 C 154.449219 19.828125 155.6875 20.792969 156.902344 21.789062 C 158.117188 22.789062 159.304688 23.8125 160.46875 24.867188 C 161.632812 25.921875 162.769531 27.007812 163.882812 28.117188 C 164.992188 29.230469 166.078125 30.367188 167.132812 31.53125 C 168.1875 32.695312 169.210938 33.882812 170.210938 35.097656 C 171.207031 36.3125 172.171875 37.550781 173.109375 38.8125 C 174.042969 40.074219 174.949219 41.359375 175.820312 42.664062 C 176.695312 43.972656 177.535156 45.296875 178.34375 46.644531 C 179.148438 47.992188 179.921875 49.359375 180.664062 50.746094 C 181.40625 52.132812 182.109375 53.535156 182.78125 54.953125 C 183.453125 56.375 184.089844 57.8125 184.691406 59.261719 C 185.292969 60.714844 185.859375 62.179688 186.386719 63.660156 C 186.917969 65.136719 187.410156 66.628906 187.867188 68.132812 C 188.324219 69.636719 188.742188 71.148438 189.121094 72.675781 C 189.503906 74.199219 189.847656 75.730469 190.15625 77.269531 C 190.460938 78.8125 190.730469 80.359375 190.960938 81.914062 C 191.191406 83.46875 191.382812 85.027344 191.539062 86.589844 C 191.691406 88.152344 191.808594 89.71875 191.882812 91.289062 C 191.960938 92.859375 192 94.429688 192 96 Z M 192 96 " fill-opacity="1" fill-rule="nonzero"/><path fill="#d80027" d="M 87.636719 96 L 28.125 163.875 C 29.792969 165.542969 31.519531 167.144531 33.300781 168.683594 C 35.085938 170.222656 36.925781 171.695312 38.820312 173.097656 C 40.714844 174.503906 42.65625 175.835938 44.648438 177.09375 C 46.636719 178.355469 48.671875 179.542969 50.753906 180.652344 C 52.832031 181.765625 54.949219 182.796875 57.101562 183.753906 C 59.257812 184.707031 61.445312 185.582031 63.664062 186.375 C 65.882812 187.167969 68.128906 187.878906 70.398438 188.507812 C 72.671875 189.136719 74.964844 189.683594 77.273438 190.140625 C 79.585938 190.601562 81.914062 190.976562 84.25 191.265625 C 86.589844 191.550781 88.9375 191.753906 91.292969 191.871094 C 93.644531 191.984375 96 192.015625 98.359375 191.957031 C 100.714844 191.898438 103.066406 191.753906 105.410156 191.523438 C 107.757812 191.292969 110.089844 190.976562 112.414062 190.570312 C 114.734375 190.167969 117.039062 189.679688 119.324219 189.109375 C 121.613281 188.535156 123.875 187.878906 126.113281 187.140625 C 128.351562 186.402344 130.558594 185.582031 132.734375 184.679688 C 134.914062 183.777344 137.054688 182.796875 139.160156 181.734375 C 141.265625 180.675781 143.328125 179.539062 145.351562 178.328125 C 147.371094 177.117188 149.347656 175.832031 151.273438 174.476562 C 153.199219 173.117188 155.074219 171.691406 156.898438 170.199219 C 158.71875 168.703125 160.484375 167.140625 162.191406 165.515625 C 163.898438 163.890625 165.542969 162.207031 167.125 160.460938 C 168.710938 158.714844 170.226562 156.910156 171.675781 155.054688 C 173.125 153.195312 174.507812 151.285156 175.816406 149.328125 C 177.125 147.367188 178.363281 145.363281 179.523438 143.3125 C 180.6875 141.261719 181.769531 139.171875 182.777344 137.039062 C 183.785156 134.910156 184.714844 132.746094 185.5625 130.546875 C 186.410156 128.347656 187.179688 126.121094 187.863281 123.863281 C 188.546875 121.609375 189.148438 119.332031 189.664062 117.03125 C 190.179688 114.730469 190.613281 112.414062 190.960938 110.085938 C 191.304688 107.753906 191.566406 105.410156 191.738281 103.0625 C 191.914062 100.710938 192 98.355469 192 96 Z M 87.636719 96 " fill-opacity="1" fill-rule="nonzero"/><path fill="#0052b4" d="M 28.125 28.125 C 27.015625 29.234375 25.929688 30.375 24.875 31.539062 C 23.820312 32.703125 22.796875 33.890625 21.796875 35.105469 C 20.800781 36.320312 19.835938 37.558594 18.898438 38.820312 C 17.964844 40.082031 17.058594 41.367188 16.1875 42.671875 C 15.3125 43.976562 14.472656 45.304688 13.664062 46.652344 C 12.859375 48 12.085938 49.367188 11.34375 50.75 C 10.601562 52.136719 9.898438 53.539062 9.226562 54.960938 C 8.554688 56.378906 7.917969 57.816406 7.316406 59.265625 C 6.714844 60.71875 6.148438 62.183594 5.621094 63.664062 C 5.089844 65.140625 4.597656 66.632812 4.140625 68.136719 C 3.6875 69.640625 3.265625 71.152344 2.886719 72.675781 C 2.503906 74.199219 2.160156 75.734375 1.851562 77.273438 C 1.546875 78.816406 1.277344 80.363281 1.046875 81.914062 C 0.816406 83.46875 0.625 85.027344 0.472656 86.589844 C 0.316406 88.15625 0.203125 89.722656 0.125 91.289062 C 0.046875 92.859375 0.0078125 94.429688 0.0078125 96 C 0.0078125 97.570312 0.046875 99.140625 0.125 100.710938 C 0.203125 102.277344 0.316406 103.84375 0.472656 105.410156 C 0.625 106.972656 0.816406 108.53125 1.046875 110.085938 C 1.277344 111.636719 1.546875 113.183594 1.851562 114.726562 C 2.160156 116.265625 2.503906 117.800781 2.886719 119.324219 C 3.265625 120.847656 3.6875 122.359375 4.140625 123.863281 C 4.597656 125.367188 5.089844 126.859375 5.621094 128.335938 C 6.148438 129.816406 6.714844 131.28125 7.316406 132.734375 C 7.917969 134.183594 8.554688 135.621094 9.226562 137.039062 C 9.898438 138.460938 10.601562 139.863281 11.34375 141.25 C 12.085938 142.632812 12.859375 144 13.664062 145.347656 C 14.472656 146.695312 15.3125 148.023438 16.1875 149.328125 C 17.058594 150.632812 17.964844 151.917969 18.898438 153.179688 C 19.835938 154.441406 20.800781 155.679688 21.796875 156.894531 C 22.796875 158.109375 23.820312 159.296875 24.875 160.460938 C 25.929688 161.625 27.015625 162.765625 28.125 163.875 L 96 96 Z M 28.125 28.125 " fill-opacity="1" fill-rule="nonzero"/></svg>