<svg xmlns="http://www.w3.org/2000/svg" xmlns:xlink="http://www.w3.org/1999/xlink" width="256" zoomAndPan="magnify" viewBox="0 0 192 191.999996" height="256" preserveAspectRatio="xMidYMid meet" version="1.0"><path fill="#eeeeee" d="M 192 96 C 192 97.570312 191.960938 99.140625 191.882812 100.710938 C 191.808594 102.28125 191.691406 103.847656 191.539062 105.410156 C 191.382812 106.972656 191.191406 108.53125 190.960938 110.085938 C 190.730469 111.640625 190.460938 113.1875 190.15625 114.730469 C 189.847656 116.269531 189.503906 117.800781 189.121094 119.324219 C 188.742188 120.851562 188.324219 122.363281 187.867188 123.867188 C 187.410156 125.371094 186.917969 126.863281 186.386719 128.339844 C 185.859375 129.820312 185.292969 131.285156 184.691406 132.738281 C 184.089844 134.1875 183.453125 135.625 182.78125 137.046875 C 182.109375 138.464844 181.40625 139.867188 180.664062 141.253906 C 179.921875 142.640625 179.148438 144.007812 178.34375 145.355469 C 177.535156 146.703125 176.695312 148.027344 175.820312 149.335938 C 174.949219 150.640625 174.042969 151.925781 173.109375 153.1875 C 172.171875 154.449219 171.207031 155.6875 170.210938 156.902344 C 169.210938 158.117188 168.1875 159.304688 167.132812 160.46875 C 166.078125 161.632812 164.992188 162.769531 163.882812 163.882812 C 162.769531 164.992188 161.632812 166.078125 160.46875 167.132812 C 159.304688 168.1875 158.117188 169.210938 156.902344 170.210938 C 155.6875 171.207031 154.449219 172.171875 153.1875 173.109375 C 151.925781 174.042969 150.640625 174.949219 149.335938 175.820312 C 148.027344 176.695312 146.703125 177.535156 145.355469 178.34375 C 144.007812 179.148438 142.640625 179.921875 141.253906 180.664062 C 139.867188 181.40625 138.464844 182.109375 137.046875 182.78125 C 135.625 183.453125 134.1875 184.089844 132.738281 184.691406 C 131.285156 185.292969 129.820312 185.859375 128.339844 186.386719 C 126.863281 186.917969 125.371094 187.410156 123.867188 187.867188 C 122.363281 188.324219 120.851562 188.742188 119.324219 189.121094 C 117.800781 189.503906 116.269531 189.847656 114.730469 190.15625 C 113.1875 190.460938 111.640625 190.730469 110.085938 190.960938 C 108.53125 191.191406 106.972656 191.382812 105.410156 191.539062 C 103.847656 191.691406 102.28125 191.808594 100.710938 191.882812 C 99.140625 191.960938 97.570312 192 96 192 C 94.429688 192 92.859375 191.960938 91.289062 191.882812 C 89.71875 191.808594 88.152344 191.691406 86.589844 191.539062 C 85.027344 191.382812 83.46875 191.191406 81.914062 190.960938 C 80.359375 190.730469 78.8125 190.460938 77.269531 190.15625 C 75.730469 189.847656 74.199219 189.503906 72.675781 189.121094 C 71.148438 188.742188 69.636719 188.324219 68.132812 187.867188 C 66.628906 187.410156 65.136719 186.917969 63.660156 186.386719 C 62.179688 185.859375 60.714844 185.292969 59.261719 184.691406 C 57.8125 184.089844 56.375 183.453125 54.953125 182.78125 C 53.535156 182.109375 52.132812 181.40625 50.746094 180.664062 C 49.359375 179.921875 47.992188 179.148438 46.644531 178.34375 C 45.296875 177.535156 43.972656 176.695312 42.664062 175.820312 C 41.359375 174.949219 40.074219 174.042969 38.8125 173.109375 C 37.550781 172.171875 36.3125 171.207031 35.097656 170.210938 C 33.882812 169.210938 32.695312 168.1875 31.53125 167.132812 C 30.367188 166.078125 29.230469 164.992188 28.117188 163.882812 C 27.007812 162.769531 25.921875 161.632812 24.867188 160.46875 C 23.8125 159.304688 22.789062 158.117188 21.789062 156.902344 C 20.792969 155.6875 19.828125 154.449219 18.890625 153.1875 C 17.957031 151.925781 17.050781 150.640625 16.179688 149.335938 C 15.304688 148.027344 14.464844 146.703125 13.65625 145.355469 C 12.851562 144.007812 12.078125 142.640625 11.335938 141.253906 C 10.59375 139.867188 9.890625 138.464844 9.21875 137.046875 C 8.546875 135.625 7.910156 134.1875 7.308594 132.738281 C 6.707031 131.285156 6.140625 129.820312 5.613281 128.339844 C 5.082031 126.863281 4.589844 125.371094 4.132812 123.867188 C 3.675781 122.363281 3.257812 120.851562 2.878906 119.324219 C 2.496094 117.800781 2.152344 116.269531 1.84375 114.730469 C 1.539062 113.1875 1.269531 111.640625 1.039062 110.085938 C 0.808594 108.53125 0.617188 106.972656 0.460938 105.410156 C 0.308594 103.847656 0.191406 102.28125 0.117188 100.710938 C 0.0390625 99.140625 0 97.570312 0 96 C 0 94.429688 0.0390625 92.859375 0.117188 91.289062 C 0.191406 89.71875 0.308594 88.152344 0.460938 86.589844 C 0.617188 85.027344 0.808594 83.46875 1.039062 81.914062 C 1.269531 80.359375 1.539062 78.8125 1.84375 77.269531 C 2.152344 75.730469 2.496094 74.199219 2.878906 72.675781 C 3.257812 71.148438 3.675781 69.636719 4.132812 68.132812 C 4.589844 66.628906 5.082031 65.136719 5.613281 63.660156 C 6.140625 62.179688 6.707031 60.714844 7.308594 59.261719 C 7.910156 57.8125 8.546875 56.375 9.21875 54.953125 C 9.890625 53.535156 10.59375 52.132812 11.335938 50.746094 C 12.078125 49.359375 12.851562 47.992188 13.65625 46.644531 C 14.464844 45.296875 15.304688 43.972656 16.179688 42.664062 C 17.050781 41.359375 17.957031 40.074219 18.890625 38.8125 C 19.828125 37.550781 20.792969 36.3125 21.789062 35.097656 C 22.789062 33.882812 23.8125 32.695312 24.867188 31.53125 C 25.921875 30.367188 27.007812 29.230469 28.117188 28.117188 C 29.230469 27.007812 30.367188 25.921875 31.53125 24.867188 C 32.695312 23.8125 33.882812 22.789062 35.097656 21.789062 C 36.3125 20.792969 37.550781 19.828125 38.8125 18.890625 C 40.074219 17.957031 41.359375 17.050781 42.664062 16.179688 C 43.972656 15.304688 45.296875 14.464844 46.644531 13.65625 C 47.992188 12.851562 49.359375 12.078125 50.746094 11.335938 C 52.132812 10.59375 53.535156 9.890625 54.953125 9.21875 C 56.375 8.546875 57.8125 7.910156 59.261719 7.308594 C 60.714844 6.707031 62.179688 6.140625 63.660156 5.613281 C 65.136719 5.082031 66.628906 4.589844 68.132812 4.132812 C 69.636719 3.675781 71.148438 3.257812 72.675781 2.878906 C 74.199219 2.496094 75.730469 2.152344 77.269531 1.84375 C 78.8125 1.539062 80.359375 1.269531 81.914062 1.039062 C 83.46875 0.808594 85.027344 0.617188 86.589844 0.460938 C 88.152344 0.308594 89.71875 0.191406 91.289062 0.117188 C 92.859375 0.0390625 94.429688 0 96 0 C 97.570312 0 99.140625 0.0390625 100.710938 0.117188 C 102.28125 0.191406 103.847656 0.308594 105.410156 0.460938 C 106.972656 0.617188 108.53125 0.808594 110.085938 1.039062 C 111.640625 1.269531 113.1875 1.539062 114.730469 1.84375 C 116.269531 2.152344 117.800781 2.496094 119.324219 2.878906 C 120.851562 3.257812 122.363281 3.675781 123.867188 4.132812 C 125.371094 4.589844 126.863281 5.082031 128.339844 5.613281 C 129.820312 6.140625 131.285156 6.707031 132.738281 7.308594 C 134.1875 7.910156 135.625 8.546875 137.046875 9.21875 C 138.464844 9.890625 139.867188 10.59375 141.253906 11.335938 C 142.640625 12.078125 144.007812 12.851562 145.355469 13.65625 C 146.703125 14.464844 148.027344 15.304688 149.335938 16.179688 C 150.640625 17.050781 151.925781 17.957031 153.1875 18.890625 C 154.449219 19.828125 155.6875 20.792969 156.902344 21.789062 C 158.117188 22.789062 159.304688 23.8125 160.46875 24.867188 C 161.632812 25.921875 162.769531 27.007812 163.882812 28.117188 C 164.992188 29.230469 166.078125 30.367188 167.132812 31.53125 C 168.1875 32.695312 169.210938 33.882812 170.210938 35.097656 C 171.207031 36.3125 172.171875 37.550781 173.109375 38.8125 C 174.042969 40.074219 174.949219 41.359375 175.820312 42.664062 C 176.695312 43.972656 177.535156 45.296875 178.34375 46.644531 C 179.148438 47.992188 179.921875 49.359375 180.664062 50.746094 C 181.40625 52.132812 182.109375 53.535156 182.78125 54.953125 C 183.453125 56.375 184.089844 57.8125 184.691406 59.261719 C 185.292969 60.714844 185.859375 62.179688 186.386719 63.660156 C 186.917969 65.136719 187.410156 66.628906 187.867188 68.132812 C 188.324219 69.636719 188.742188 71.148438 189.121094 72.675781 C 189.503906 74.199219 189.847656 75.730469 190.15625 77.269531 C 190.460938 78.8125 190.730469 80.359375 190.960938 81.914062 C 191.191406 83.46875 191.382812 85.027344 191.539062 86.589844 C 191.691406 88.152344 191.808594 89.71875 191.882812 91.289062 C 191.960938 92.859375 192 94.429688 192 96 Z M 192 96 " fill-opacity="1" fill-rule="nonzero"/><path fill="#0052b4" d="M 96 192 C 97.925781 192 99.851562 191.941406 101.773438 191.824219 C 103.695312 191.710938 105.613281 191.535156 107.527344 191.304688 C 109.4375 191.074219 111.34375 190.785156 113.238281 190.4375 C 115.132812 190.089844 117.015625 189.6875 118.886719 189.230469 C 120.757812 188.769531 122.613281 188.253906 124.453125 187.683594 C 126.292969 187.113281 128.113281 186.484375 129.914062 185.804688 C 131.714844 185.125 133.496094 184.390625 135.253906 183.601562 C 137.011719 182.816406 138.746094 181.972656 140.453125 181.082031 C 142.160156 180.191406 143.835938 179.246094 145.488281 178.253906 C 147.140625 177.261719 148.757812 176.21875 150.347656 175.128906 C 151.933594 174.039062 153.488281 172.898438 155.007812 171.714844 C 156.527344 170.53125 158.007812 169.300781 159.453125 168.027344 C 160.898438 166.753906 162.304688 165.441406 163.671875 164.082031 C 165.035156 162.722656 166.359375 161.324219 167.644531 159.886719 C 168.925781 158.449219 170.164062 156.976562 171.355469 155.460938 C 172.546875 153.949219 173.695312 152.402344 174.796875 150.820312 C 175.894531 149.242188 176.945312 147.628906 177.949219 145.984375 C 178.953125 144.339844 179.90625 142.664062 180.808594 140.964844 C 181.710938 139.261719 182.558594 137.535156 183.359375 135.78125 C 184.15625 134.027344 184.902344 132.25 185.59375 130.453125 C 186.285156 128.65625 186.921875 126.839844 187.503906 125.003906 C 188.085938 123.167969 188.609375 121.3125 189.082031 119.445312 C 189.550781 117.578125 189.964844 115.699219 190.324219 113.804688 C 190.679688 111.910156 190.980469 110.011719 191.222656 108.097656 C 191.464844 106.1875 191.652344 104.269531 191.777344 102.347656 C 191.90625 100.425781 191.976562 98.503906 191.988281 96.578125 C 192 94.648438 191.953125 92.726562 191.847656 90.800781 C 191.742188 88.878906 191.582031 86.960938 191.359375 85.046875 C 191.140625 83.132812 190.863281 81.226562 190.53125 79.328125 C 190.195312 77.433594 189.804688 75.546875 189.355469 73.675781 C 188.90625 71.800781 188.402344 69.941406 187.84375 68.097656 C 187.285156 66.253906 186.667969 64.429688 186 62.625 L 6 62.625 C 5.332031 64.429688 4.714844 66.253906 4.15625 68.097656 C 3.597656 69.941406 3.09375 71.800781 2.644531 73.675781 C 2.195312 75.546875 1.804688 77.433594 1.46875 79.328125 C 1.136719 81.226562 0.859375 83.132812 0.640625 85.046875 C 0.417969 86.960938 0.257812 88.878906 0.152344 90.800781 C 0.046875 92.726562 0 94.648438 0.0117188 96.578125 C 0.0234375 98.503906 0.09375 100.425781 0.222656 102.347656 C 0.347656 104.269531 0.535156 106.1875 0.777344 108.097656 C 1.019531 110.011719 1.320312 111.910156 1.675781 113.804688 C 2.035156 115.699219 2.449219 117.578125 2.917969 119.445312 C 3.390625 121.3125 3.914062 123.167969 4.496094 125.003906 C 5.078125 126.839844 5.714844 128.65625 6.40625 130.453125 C 7.097656 132.25 7.84375 134.027344 8.640625 135.78125 C 9.441406 137.535156 10.289062 139.261719 11.191406 140.964844 C 12.09375 142.664062 13.046875 144.339844 14.050781 145.984375 C 15.054688 147.628906 16.105469 149.242188 17.203125 150.820312 C 18.304688 152.402344 19.453125 153.949219 20.644531 155.460938 C 21.835938 156.976562 23.074219 158.449219 24.355469 159.886719 C 25.640625 161.324219 26.964844 162.722656 28.328125 164.082031 C 29.695312 165.441406 31.101562 166.753906 32.546875 168.027344 C 33.992188 169.300781 35.472656 170.53125 36.992188 171.714844 C 38.511719 172.898438 40.066406 174.039062 41.652344 175.128906 C 43.242188 176.21875 44.859375 177.261719 46.511719 178.253906 C 48.164062 179.246094 49.839844 180.191406 51.546875 181.082031 C 53.253906 181.972656 54.988281 182.816406 56.746094 183.601562 C 58.503906 184.390625 60.285156 185.125 62.085938 185.804688 C 63.886719 186.484375 65.707031 187.113281 67.546875 187.683594 C 69.386719 188.253906 71.242188 188.769531 73.113281 189.230469 C 74.984375 189.6875 76.867188 190.089844 78.761719 190.4375 C 80.65625 190.785156 82.5625 191.074219 84.472656 191.304688 C 86.386719 191.535156 88.304688 191.710938 90.226562 191.824219 C 92.148438 191.941406 94.074219 192 96 192 Z M 96 192 " fill-opacity="1" fill-rule="nonzero"/><path fill="#d80027" d="M 96 192 C 98.433594 192 100.859375 191.90625 103.285156 191.722656 C 105.710938 191.539062 108.125 191.261719 110.53125 190.890625 C 112.933594 190.523438 115.320312 190.0625 117.691406 189.515625 C 120.0625 188.964844 122.40625 188.324219 124.726562 187.597656 C 127.046875 186.871094 129.335938 186.054688 131.597656 185.152344 C 133.855469 184.25 136.078125 183.261719 138.261719 182.191406 C 140.445312 181.121094 142.585938 179.96875 144.679688 178.734375 C 146.777344 177.5 148.824219 176.191406 150.820312 174.800781 C 152.816406 173.410156 154.757812 171.949219 156.644531 170.410156 C 158.527344 168.875 160.351562 167.269531 162.117188 165.59375 C 163.878906 163.917969 165.578125 162.175781 167.207031 160.371094 C 168.839844 158.566406 170.398438 156.703125 171.886719 154.78125 C 173.378906 152.859375 174.792969 150.882812 176.128906 148.851562 C 177.46875 146.820312 178.730469 144.742188 179.910156 142.613281 C 181.09375 140.488281 182.191406 138.320312 183.207031 136.109375 C 184.222656 133.902344 185.15625 131.65625 186 129.375 L 6 129.375 C 6.84375 131.65625 7.777344 133.902344 8.792969 136.109375 C 9.808594 138.320312 10.90625 140.488281 12.089844 142.613281 C 13.269531 144.742188 14.53125 146.820312 15.871094 148.851562 C 17.207031 150.882812 18.621094 152.859375 20.113281 154.78125 C 21.601562 156.703125 23.160156 158.566406 24.792969 160.371094 C 26.421875 162.175781 28.121094 163.917969 29.882812 165.59375 C 31.648438 167.269531 33.472656 168.875 35.355469 170.410156 C 37.242188 171.949219 39.183594 173.410156 41.179688 174.800781 C 43.175781 176.191406 45.222656 177.5 47.320312 178.734375 C 49.414062 179.96875 51.554688 181.121094 53.738281 182.191406 C 55.921875 183.261719 58.144531 184.25 60.402344 185.152344 C 62.664062 186.054688 64.953125 186.871094 67.273438 187.597656 C 69.59375 188.324219 71.9375 188.964844 74.308594 189.515625 C 76.679688 190.0625 79.066406 190.523438 81.46875 190.890625 C 83.875 191.261719 86.289062 191.539062 88.714844 191.722656 C 91.140625 191.90625 93.566406 192 96 192 Z M 96 192 " fill-opacity="1" fill-rule="nonzero"/><path fill="#eeeeee" d="M 24.824219 54.261719 L 24.824219 102.148438 C 24.824219 129.375 60.414062 137.773438 60.414062 137.773438 C 60.414062 137.773438 96 129.375 96 102.148438 L 96 54.261719 Z M 24.824219 54.261719 " fill-opacity="1" fill-rule="nonzero"/><path fill="#d80027" d="M 33.1875 54.261719 L 33.1875 102.148438 C 33.179688 105.328125 33.878906 108.339844 35.289062 111.1875 L 85.539062 111.1875 C 86.953125 108.339844 87.652344 105.328125 87.636719 102.148438 L 87.636719 54.261719 Z M 33.1875 54.261719 " fill-opacity="1" fill-rule="nonzero"/><path fill="#eeeeee" d="M 77.101562 87.636719 L 64.574219 87.636719 L 64.574219 79.3125 L 72.9375 79.3125 L 72.9375 70.949219 L 64.574219 70.949219 L 64.574219 62.625 L 56.25 62.625 L 56.25 70.949219 L 47.886719 70.949219 L 47.886719 79.3125 L 56.25 79.3125 L 56.25 87.636719 L 43.726562 87.636719 L 43.726562 96 L 56.25 96 L 56.25 104.363281 L 64.574219 104.363281 L 64.574219 96 L 77.101562 96 Z M 77.101562 87.636719 " fill-opacity="1" fill-rule="nonzero"/><path fill="#0052b4" d="M 46.6875 122.851562 C 51 125.503906 55.574219 127.578125 60.414062 129.074219 C 63.226562 128.210938 68.773438 126.226562 74.136719 122.851562 C 76.535156 121.476562 78.703125 119.800781 80.640625 117.824219 C 82.578125 115.851562 84.210938 113.652344 85.539062 111.226562 C 84.304688 110.347656 82.96875 109.679688 81.527344 109.21875 C 80.089844 108.757812 78.613281 108.527344 77.101562 108.523438 C 75.976562 108.523438 74.851562 108.675781 73.800781 108.898438 C 73.230469 107.601562 72.484375 106.410156 71.566406 105.328125 C 70.648438 104.246094 69.59375 103.316406 68.40625 102.539062 C 67.21875 101.765625 65.941406 101.175781 64.582031 100.769531 C 63.222656 100.363281 61.832031 100.164062 60.414062 100.164062 C 58.992188 100.164062 57.601562 100.363281 56.242188 100.769531 C 54.882812 101.175781 53.609375 101.765625 52.417969 102.539062 C 51.230469 103.316406 50.175781 104.246094 49.257812 105.328125 C 48.339844 106.410156 47.597656 107.601562 47.023438 108.898438 C 45.9375 108.648438 44.839844 108.523438 43.726562 108.523438 C 40.574219 108.523438 37.6875 109.5 35.289062 111.1875 C 36.613281 113.621094 38.242188 115.828125 40.179688 117.808594 C 42.117188 119.789062 44.285156 121.46875 46.6875 122.851562 Z M 46.6875 122.851562 " fill-opacity="1" fill-rule="nonzero"/></svg>