<?xml version="1.0" encoding="UTF-8"?> <svg xmlns="http://www.w3.org/2000/svg" viewBox="0 0 512 512" width="512px" height="512px"><defs><style>.cls-1{fill:url(#Nepojmenovaný_přechod_33);}.cls-2{fill-rule:evenodd;fill:url(#Nepojmenovaný_přechod_34);}</style><linearGradient id="Nepojmenovaný_přechod_33" x1="256" x2="256" y2="512" gradientUnits="userSpaceOnUse"><stop offset="0" stop-color="#fff"></stop><stop offset="1" stop-color="#ededed"></stop></linearGradient><linearGradient id="Nepojmenovaný_přechod_34" x1="256.4" y1="121.88" x2="256.4" y2="390.08" gradientUnits="userSpaceOnUse"><stop offset="0" stop-color="#f33"></stop><stop offset="1" stop-color="#900"></stop></linearGradient></defs><title>Datový zdroj 1</title><g id="Vrstva_2" data-name="Vrstva 2"><g id="Vrstva_1-2" data-name="Vrstva 1"><circle class="cls-1" cx="256" cy="256" r="256"></circle><path class="cls-2" d="M259.11,136.64q-11.25,1.82-22.35,4.23c-4.9,1-9.8,2-14.64,3.25-4.46,1.14-9,2.14-13.42,3.54s-8.4,2.73-12.55,4.33a80.19,80.19,0,0,0-22.32,13.19,68.26,68.26,0,0,0-11,11.45,80.83,80.83,0,0,0-5.92,9.61A23.76,23.76,0,0,0,154,196.88c-.06,10.77,6.74,19.78,14.56,26.48,2.57,2.19,5.31,4.2,8.08,6.13a191.64,191.64,0,0,0,26.29,15.11q14.09,6.74,28.42,12.92c9,3.87,18.29,7.15,27.63,10.27l8.08,2.67c8.46,2.83,17.1,5.44,25.5,8.5,5.22,1.9,10.8,3.68,16,6.06,5.43,2.47,11.06,4.93,15.84,8.47a29.64,29.64,0,0,1,8,8.65,22.76,22.76,0,0,1,3.36,11.11,18.73,18.73,0,0,1-3,10.61c-5.25,8.25-14.38,13.88-23.19,17.63A377.13,377.13,0,0,1,269.26,356c-7.82,2.3-15.64,4.59-23.51,6.65s-16,4.25-24,6.26-15.93,3.83-23.92,5.57c-4.58,1-9.19,2-13.74,2.9-2.74.55-5.42,1.14-8.17,1.73q-8.58,1.88-17.18,3.73c-6.53,1.45-13.07,2.86-19.61,4.29-1.9.42-3.79.93-5.69,1.35-1.69.39-8,1.87-3.33,1.59,6.53-.36,24-1.9,61.26-6.91,13.51-2.25,27.07-4.18,40.61-6.4,16.86-2.77,33.61-6,50.24-10,4.76-1.13,9.48-2.34,14.21-3.63,3.12-.88,6.22-1.78,9.28-2.74,13.07-4.07,34-11.27,39-13.44,19-8.35,30.78-14.63,36.93-29.6a35.89,35.89,0,0,0,2.45-17,38.66,38.66,0,0,0-5.11-15,53.14,53.14,0,0,0-9.86-11.45,107.15,107.15,0,0,0-23-15.78c-2.33-1.23-4.73-2.39-7.15-3.5-3-1.38-6-2.68-9-4-4.29-1.79-8.61-3.35-13-4.86-11.38-3.91-22.93-7.41-34.37-11.16-6.48-2.13-12.89-4.43-19.14-7.09-2.65-1.11-5.28-2.3-7.85-3.56-3-1.47-6-3.09-8.9-4.83-3.59-2.17-9.45-5.92-7.82-11,1.14-3.63,5.08-5,8.29-6.35a75.48,75.48,0,0,1,9.22-2.87c9.45-2.44,19.11-4.08,28.65-6.13,2.8-.6,5.6-1.21,8.4-1.87,7.44-1.75,15.11-3.06,22.2-5.89,6.1-2.41,13.92-6.26,16.19-13,3.27-9.79-.44-20.36-5.78-28.62-1.92-3-3.91-5.86-6-8.77-2.8-3.94-5.89-7.64-8.93-11.39a3.73,3.73,0,0,0-4.43-1.14c-1.87.64-7,6.64-47.73,14.47Z"></path></g></g></svg> 