<svg xmlns="http://www.w3.org/2000/svg" xmlns:xlink="http://www.w3.org/1999/xlink" width="256" zoomAndPan="magnify" viewBox="0 0 192 191.999996" height="256" preserveAspectRatio="xMidYMid meet" version="1.0"><defs><clipPath id="9ce9bf9afe"><path d="M 6.699219 19.199219 L 185.199219 19.199219 L 185.199219 172.949219 L 6.699219 172.949219 Z M 6.699219 19.199219 " clip-rule="nonzero"/></clipPath></defs><g clip-path="url(#9ce9bf9afe)"><path fill="#00ab59" d="M 172.039062 32.480469 C 154.359375 14.796875 125.457031 14.796875 107.820312 32.480469 L 96.015625 44.285156 L 84.214844 32.480469 C 66.53125 14.796875 37.632812 14.796875 19.992188 32.480469 C 2.855469 49.621094 2.355469 77.34375 18.457031 95.117188 L 60.019531 95.117188 L 66.078125 63.503906 C 66.347656 62.011719 67.617188 60.925781 69.152344 60.835938 C 70.691406 60.746094 72.046875 61.742188 72.453125 63.1875 L 87.242188 113.523438 L 95.292969 80.824219 C 95.65625 79.425781 96.875 78.382812 98.324219 78.339844 C 99.769531 78.246094 101.082031 79.152344 101.578125 80.554688 L 107.867188 98.417969 L 119.445312 63.097656 C 119.894531 61.742188 121.207031 60.792969 122.65625 60.835938 C 124.101562 60.882812 125.367188 61.832031 125.730469 63.234375 L 134.550781 95.117188 L 173.578125 95.117188 C 189.722656 77.34375 189.179688 49.621094 172.039062 32.480469 Z M 128.851562 99.277344 L 122.246094 75.488281 L 111.03125 109.679688 C 110.578125 111.035156 109.359375 111.941406 107.957031 111.941406 L 107.910156 111.941406 C 106.507812 111.941406 105.289062 111.082031 104.789062 109.726562 L 98.957031 93.128906 L 90.636719 126.910156 C 90.273438 128.355469 89.007812 129.398438 87.515625 129.398438 L 87.425781 129.398438 C 85.976562 129.398438 84.664062 128.449219 84.257812 127.046875 L 69.921875 78.023438 L 65.898438 99.007812 C 65.582031 100.542969 64.222656 101.675781 62.6875 101.675781 L 24.878906 101.675781 L 31.753906 108.546875 L 95.972656 172.769531 L 160.191406 108.546875 L 167.066406 101.675781 L 131.972656 101.675781 C 130.523438 101.675781 129.257812 100.679688 128.851562 99.277344 Z M 128.851562 99.277344 " fill-opacity="1" fill-rule="nonzero"/></g></svg>