<!--?xml version="1.0" standalone="no"?-->
              <svg id="sw-js-blob-svg" viewBox="0 0 100 100" xmlns="http://www.w3.org/2000/svg" version="1.1">
                    <defs> 
                        <linearGradient id="sw-gradient" x1="0" x2="1" y1="1" y2="0">
                            <stop id="stop1" stop-color="rgba(220, 252, 231, 1)" offset="0%"></stop>
                            <stop id="stop2" stop-color="rgba(220, 252, 231, 1)" offset="100%"></stop>
                        </linearGradient>
                    </defs>
                <path fill="url(#sw-gradient)" d="M17.2,-29.5C22,-27.1,25.2,-21.8,30,-16.3C34.7,-10.9,41,-5.5,40.9,-0.1C40.8,5.3,34.2,10.6,30.2,17.4C26.3,24.2,24.9,32.5,20.3,34.5C15.7,36.5,7.8,32.2,0.7,30.9C-6.4,29.6,-12.7,31.3,-19.3,30.5C-25.8,29.6,-32.6,26.2,-37.6,20.7C-42.6,15.1,-45.9,7.6,-46.2,-0.2C-46.5,-8,-44,-15.9,-38.7,-20.9C-33.3,-25.9,-25.3,-27.8,-18.4,-29C-11.5,-30.2,-5.7,-30.5,0.3,-31C6.2,-31.4,12.5,-31.9,17.2,-29.5Z" width="100%" height="100%" transform="translate(50 50)" stroke-width="0" style="transition: 0.3s;" stroke="url(#sw-gradient)"></path>
              </svg>