<svg xmlns="http://www.w3.org/2000/svg" xmlns:xlink="http://www.w3.org/1999/xlink" width="750" zoomAndPan="magnify" viewBox="0 0 562.5 187.499995" height="250" preserveAspectRatio="xMidYMid meet" version="1.0"><defs><g/><clipPath id="b3a9088ccd"><path d="M 512.085938 18.699219 L 561.453125 18.699219 L 561.453125 74.050781 L 512.085938 74.050781 Z M 512.085938 18.699219 " clip-rule="nonzero"/></clipPath><clipPath id="df05b135c9"><path d="M 0.5 79 L 56 79 L 56 122 L 0.5 122 Z M 0.5 79 " clip-rule="nonzero"/></clipPath></defs><g clip-path="url(#b3a9088ccd)"><path fill="#00a651" d="M 549.042969 38.4375 C 549.25 39.152344 549.359375 39.957031 549.359375 40.871094 C 549.359375 42.480469 549.007812 44.03125 548.375 45.453125 C 549.304688 44.792969 550.136719 44.117188 550.9375 43.492188 C 553.785156 41.285156 556.476562 40.515625 558.554688 40.390625 C 559.671875 40.320312 561.5 39.460938 561.5 38.4375 Z M 548.632812 40.871094 C 548.632812 35.203125 543.449219 33.667969 538.839844 32.933594 C 534.195312 32.191406 528.824219 30.53125 528.824219 25.570312 C 528.824219 23.140625 530.34375 20.722656 532.953125 20.722656 C 536.792969 20.722656 537.464844 23.636719 537.480469 24.050781 C 537.496094 24.46875 536.363281 24.761719 536.214844 25.585938 C 536.039062 26.578125 536.472656 27.570312 537.097656 28.371094 C 537.652344 29.085938 538.457031 30.53125 539.257812 30.402344 C 540.113281 30.265625 540.425781 28.804688 540.664062 27.84375 C 540.90625 26.882812 541.320312 26.066406 540.921875 25.171875 C 540.425781 24.0625 539.929688 24.609375 539.546875 23.8125 C 539.324219 23.351562 538.472656 18.707031 533.335938 18.707031 C 529.753906 18.707031 526.488281 21.667969 526.167969 25.027344 C 525.710938 29.839844 527.609375 31.652344 531.609375 33.539062 C 537.839844 36.480469 544.3125 36.355469 544.3125 40.484375 C 544.3125 44.519531 542.9375 46.660156 540.570312 48.230469 C 540.160156 48.5 539.382812 48.855469 538.621094 49.117188 L 538.621094 51.953125 C 538.78125 51.929688 538.9375 51.90625 539.097656 51.878906 C 544.410156 50.984375 548.632812 46.246094 548.632812 40.871094 Z M 542.503906 38.4375 L 512.085938 38.4375 C 512.085938 39.460938 513.914062 40.320312 515.03125 40.390625 C 517.109375 40.515625 519.800781 41.285156 522.648438 43.492188 C 525.554688 45.75 528.832031 48.71875 535.6875 49.007812 L 535.6875 57.726562 C 536.085938 57.800781 536.53125 57.839844 537.015625 57.839844 C 537.21875 57.839844 537.535156 57.828125 537.898438 57.789062 L 537.898438 48.585938 C 541.574219 47.777344 543.589844 44.636719 543.589844 40.484375 C 543.585938 39.628906 543.238281 38.988281 542.503906 38.4375 Z M 535.6875 64.390625 C 536.308594 64.769531 537.066406 64.933594 537.898438 65.046875 L 537.898438 61.640625 C 537.160156 61.6875 536.414062 61.679688 535.6875 61.605469 Z M 543 67.144531 C 541.816406 66.25 540.28125 66.039062 537.546875 65.703125 C 534.304688 65.304688 533.449219 63.269531 533.355469 61.121094 C 532.515625 60.839844 531.738281 60.453125 531.066406 59.945312 C 530.910156 60.675781 530.839844 61.4375 530.839844 62.214844 C 530.839844 65.449219 534.324219 66.820312 536.792969 67.175781 C 539.351562 67.542969 541.753906 67.640625 542.089844 67.785156 C 542.429688 67.929688 542.632812 68.089844 542.777344 68.25 C 542.921875 68.40625 543.304688 68.632812 543.546875 68.472656 C 543.785156 68.3125 543.59375 67.59375 543 67.144531 Z M 534.265625 57.222656 C 534.472656 57.007812 534.707031 56.824219 534.964844 56.660156 L 534.964844 54.683594 C 534.347656 55.03125 533.816406 55.417969 533.359375 55.847656 C 533.359375 56.378906 533.675781 56.863281 534.265625 57.222656 Z M 541.304688 56.296875 C 541.304688 57.832031 539.289062 58.566406 537.015625 58.566406 C 534.746094 58.566406 532.632812 57.671875 532.632812 55.847656 C 532.632812 53.597656 533.558594 52.792969 534.964844 52.433594 L 534.964844 49.273438 C 531.882812 49.511719 529.335938 52.34375 529.335938 54.757812 C 529.335938 56.519531 529.648438 59.277344 534.519531 60.679688 C 539.640625 62.152344 545.53125 58.917969 545.53125 55.6875 C 545.53125 54.117188 544.726562 53.359375 543.675781 53.03125 C 542.800781 52.757812 541.761719 52.367188 538.621094 53.273438 L 538.621094 55.269531 C 539.117188 55.132812 539.558594 55.046875 539.992188 55.046875 C 540.890625 55.046875 541.304688 55.335938 541.304688 56.296875 Z M 524.566406 74.28125 L 549.019531 74.28125 C 549.019531 73.882812 547.722656 73.304688 546.601562 73.210938 C 545.480469 73.113281 543.980469 73.050781 543.640625 72.761719 C 543.179688 72.363281 542.4375 72.085938 541.464844 71.847656 C 540.472656 71.609375 537.898438 71.402344 537.898438 69.992188 L 537.898438 68.039062 C 537.492188 68 537.089844 67.953125 536.691406 67.894531 C 536.378906 67.851562 536.042969 67.789062 535.6875 67.707031 L 535.6875 69.992188 C 535.6875 71.402344 533.113281 71.609375 532.121094 71.847656 C 531.148438 72.085938 530.40625 72.363281 529.945312 72.761719 C 529.609375 73.050781 528.105469 73.113281 526.984375 73.210938 C 525.863281 73.304688 524.566406 73.882812 524.566406 74.28125 Z M 524.566406 74.28125 " fill-opacity="1" fill-rule="nonzero"/></g><g clip-path="url(#df05b135c9)"><g fill="#ff4500" fill-opacity="1"><g transform="translate(-4.936048, 121.054841)"><g><path d="M 27.4375 -21.328125 C 27.4375 -24.992188 26.960938 -27.59375 26.015625 -29.125 C 25.078125 -30.65625 23.460938 -31.421875 21.171875 -31.421875 C 20.460938 -31.421875 19.722656 -31.378906 18.953125 -31.296875 C 18.191406 -31.222656 17.453125 -31.132812 16.734375 -31.03125 L 16.734375 0 L 5.34375 0 L 5.34375 -38.828125 C 6.3125 -39.085938 7.445312 -39.351562 8.75 -39.625 C 10.050781 -39.90625 11.425781 -40.160156 12.875 -40.390625 C 14.332031 -40.617188 15.820312 -40.796875 17.34375 -40.921875 C 18.875 -41.054688 20.378906 -41.125 21.859375 -41.125 C 24.765625 -41.125 27.117188 -40.753906 28.921875 -40.015625 C 30.734375 -39.273438 32.226562 -38.394531 33.40625 -37.375 C 35.03125 -38.550781 36.898438 -39.46875 39.015625 -40.125 C 41.128906 -40.789062 43.082031 -41.125 44.875 -41.125 C 48.082031 -41.125 50.71875 -40.675781 52.78125 -39.78125 C 54.84375 -38.894531 56.484375 -37.632812 57.703125 -36 C 58.929688 -34.375 59.773438 -32.4375 60.234375 -30.1875 C 60.691406 -27.945312 60.921875 -25.453125 60.921875 -22.703125 L 60.921875 0 L 49.53125 0 L 49.53125 -21.328125 C 49.53125 -24.992188 49.054688 -27.59375 48.109375 -29.125 C 47.171875 -30.65625 45.554688 -31.421875 43.265625 -31.421875 C 42.648438 -31.421875 41.796875 -31.265625 40.703125 -30.953125 C 39.609375 -30.648438 38.703125 -30.269531 37.984375 -29.8125 C 38.347656 -28.632812 38.578125 -27.394531 38.671875 -26.09375 C 38.773438 -24.800781 38.828125 -23.414062 38.828125 -21.9375 L 38.828125 0 L 27.4375 0 Z M 27.4375 -21.328125 "/></g></g></g></g><g fill="#ff4500" fill-opacity="1"><g transform="translate(60.952401, 121.054841)"><g><path d="M 42.953125 -20.171875 C 42.953125 -17.015625 42.492188 -14.125 41.578125 -11.5 C 40.660156 -8.875 39.335938 -6.628906 37.609375 -4.765625 C 35.878906 -2.910156 33.800781 -1.472656 31.375 -0.453125 C 28.957031 0.554688 26.242188 1.0625 23.234375 1.0625 C 20.273438 1.0625 17.585938 0.554688 15.171875 -0.453125 C 12.753906 -1.472656 10.675781 -2.910156 8.9375 -4.765625 C 7.207031 -6.628906 5.859375 -8.875 4.890625 -11.5 C 3.921875 -14.125 3.4375 -17.015625 3.4375 -20.171875 C 3.4375 -23.335938 3.929688 -26.21875 4.921875 -28.8125 C 5.921875 -31.414062 7.296875 -33.632812 9.046875 -35.46875 C 10.804688 -37.300781 12.894531 -38.726562 15.3125 -39.75 C 17.738281 -40.769531 20.378906 -41.28125 23.234375 -41.28125 C 26.140625 -41.28125 28.800781 -40.769531 31.21875 -39.75 C 33.644531 -38.726562 35.722656 -37.300781 37.453125 -35.46875 C 39.179688 -33.632812 40.53125 -31.414062 41.5 -28.8125 C 42.46875 -26.21875 42.953125 -23.335938 42.953125 -20.171875 Z M 31.34375 -20.171875 C 31.34375 -23.691406 30.640625 -26.457031 29.234375 -28.46875 C 27.835938 -30.488281 25.835938 -31.5 23.234375 -31.5 C 20.640625 -31.5 18.628906 -30.488281 17.203125 -28.46875 C 15.773438 -26.457031 15.0625 -23.691406 15.0625 -20.171875 C 15.0625 -16.660156 15.773438 -13.875 17.203125 -11.8125 C 18.628906 -9.75 20.640625 -8.71875 23.234375 -8.71875 C 25.835938 -8.71875 27.835938 -9.75 29.234375 -11.8125 C 30.640625 -13.875 31.34375 -16.660156 31.34375 -20.171875 Z M 31.34375 -20.171875 "/></g></g></g><g fill="#ff4500" fill-opacity="1"><g transform="translate(107.349489, 121.054841)"><g><path d="M 31.109375 -20.40625 C 31.109375 -27.75 28.40625 -31.421875 23 -31.421875 C 21.832031 -31.421875 20.675781 -31.265625 19.53125 -30.953125 C 18.382812 -30.648438 17.453125 -30.269531 16.734375 -29.8125 L 16.734375 -9.09375 C 17.296875 -8.988281 18.007812 -8.898438 18.875 -8.828125 C 19.738281 -8.753906 20.679688 -8.71875 21.703125 -8.71875 C 24.816406 -8.71875 27.160156 -9.785156 28.734375 -11.921875 C 30.316406 -14.066406 31.109375 -16.894531 31.109375 -20.40625 Z M 42.734375 -20.109375 C 42.734375 -16.890625 42.257812 -13.976562 41.3125 -11.375 C 40.375 -8.78125 39.007812 -6.566406 37.21875 -4.734375 C 35.4375 -2.898438 33.242188 -1.484375 30.640625 -0.484375 C 28.046875 0.503906 25.09375 1 21.78125 1 C 20.40625 1 18.96875 0.929688 17.46875 0.796875 C 15.96875 0.671875 14.488281 0.503906 13.03125 0.296875 C 11.582031 0.0976562 10.191406 -0.140625 8.859375 -0.421875 C 7.535156 -0.703125 6.363281 -0.992188 5.34375 -1.296875 L 5.34375 -57.484375 L 16.734375 -59.3125 L 16.734375 -39.28125 C 18.015625 -39.84375 19.34375 -40.273438 20.71875 -40.578125 C 22.09375 -40.890625 23.566406 -41.046875 25.140625 -41.046875 C 27.992188 -41.046875 30.515625 -40.546875 32.703125 -39.546875 C 34.898438 -38.554688 36.738281 -37.144531 38.21875 -35.3125 C 39.695312 -33.476562 40.816406 -31.273438 41.578125 -28.703125 C 42.347656 -26.128906 42.734375 -23.265625 42.734375 -20.109375 Z M 42.734375 -20.109375 "/></g></g></g><g fill="#ff4500" fill-opacity="1"><g transform="translate(153.517265, 121.054841)"><g><path d="M 16.734375 0 L 5.34375 0 L 5.34375 -40.203125 L 16.734375 -40.203125 Z M 17.8125 -51.828125 C 17.8125 -49.734375 17.132812 -48.085938 15.78125 -46.890625 C 14.4375 -45.691406 12.84375 -45.09375 11 -45.09375 C 9.164062 -45.09375 7.570312 -45.691406 6.21875 -46.890625 C 4.875 -48.085938 4.203125 -49.734375 4.203125 -51.828125 C 4.203125 -53.910156 4.875 -55.550781 6.21875 -56.75 C 7.570312 -57.945312 9.164062 -58.546875 11 -58.546875 C 12.84375 -58.546875 14.4375 -57.945312 15.78125 -56.75 C 17.132812 -55.550781 17.8125 -53.910156 17.8125 -51.828125 Z M 17.8125 -51.828125 "/></g></g></g><g fill="#ff4500" fill-opacity="1"><g transform="translate(175.607469, 121.054841)"><g><path d="M 21.40625 0.765625 C 18.09375 0.710938 15.40625 0.359375 13.34375 -0.296875 C 11.28125 -0.960938 9.648438 -1.894531 8.453125 -3.09375 C 7.253906 -4.289062 6.4375 -5.742188 6 -7.453125 C 5.5625 -9.160156 5.34375 -11.082031 5.34375 -13.21875 L 5.34375 -57.484375 L 16.734375 -59.3125 L 16.734375 -15.515625 C 16.734375 -14.492188 16.8125 -13.578125 16.96875 -12.765625 C 17.125 -11.953125 17.414062 -11.265625 17.84375 -10.703125 C 18.28125 -10.140625 18.90625 -9.679688 19.71875 -9.328125 C 20.53125 -8.972656 21.625 -8.742188 23 -8.640625 Z M 21.40625 0.765625 "/></g></g></g><g fill="#ff4500" fill-opacity="1"><g transform="translate(199.761456, 121.054841)"><g><path d="M 5.34375 -38.828125 C 7.28125 -39.390625 9.773438 -39.910156 12.828125 -40.390625 C 15.890625 -40.878906 19.101562 -41.125 22.46875 -41.125 C 25.882812 -41.125 28.722656 -40.675781 30.984375 -39.78125 C 33.253906 -38.894531 35.050781 -37.632812 36.375 -36 C 37.707031 -34.375 38.648438 -32.4375 39.203125 -30.1875 C 39.765625 -27.945312 40.046875 -25.453125 40.046875 -22.703125 L 40.046875 0 L 28.65625 0 L 28.65625 -21.328125 C 28.65625 -24.992188 28.171875 -27.59375 27.203125 -29.125 C 26.242188 -30.65625 24.4375 -31.421875 21.78125 -31.421875 C 20.96875 -31.421875 20.101562 -31.378906 19.1875 -31.296875 C 18.269531 -31.222656 17.453125 -31.132812 16.734375 -31.03125 L 16.734375 0 L 5.34375 0 Z M 5.34375 -38.828125 "/></g></g></g><g fill="#ff4500" fill-opacity="1"><g transform="translate(244.782685, 121.054841)"><g><path d="M 16.734375 0 L 5.34375 0 L 5.34375 -40.203125 L 16.734375 -40.203125 Z M 20.9375 -54.65625 L 8.328125 -44.03125 L 3.125 -48.6875 L 13.984375 -61.078125 Z M 20.9375 -54.65625 "/></g></g></g><g fill="#00ab59" fill-opacity="1"><g transform="translate(266.882054, 121.054841)"><g><path d="M 21.40625 0.765625 C 18.09375 0.710938 15.40625 0.359375 13.34375 -0.296875 C 11.28125 -0.960938 9.648438 -1.894531 8.453125 -3.09375 C 7.253906 -4.289062 6.4375 -5.742188 6 -7.453125 C 5.5625 -9.160156 5.34375 -11.082031 5.34375 -13.21875 L 5.34375 -57.484375 L 16.734375 -59.3125 L 16.734375 -15.515625 C 16.734375 -14.492188 16.8125 -13.578125 16.96875 -12.765625 C 17.125 -11.953125 17.414062 -11.265625 17.84375 -10.703125 C 18.28125 -10.140625 18.90625 -9.679688 19.71875 -9.328125 C 20.53125 -8.972656 21.625 -8.742188 23 -8.640625 Z M 21.40625 0.765625 "/></g></g></g><g fill="#00ab59" fill-opacity="1"><g transform="translate(291.036052, 121.054841)"><g><path d="M 3.4375 -19.796875 C 3.4375 -23.359375 3.984375 -26.476562 5.078125 -29.15625 C 6.171875 -31.832031 7.609375 -34.0625 9.390625 -35.84375 C 11.179688 -37.632812 13.234375 -38.988281 15.546875 -39.90625 C 17.867188 -40.820312 20.253906 -41.28125 22.703125 -41.28125 C 28.410156 -41.28125 32.921875 -39.53125 36.234375 -36.03125 C 39.546875 -32.539062 41.203125 -27.410156 41.203125 -20.640625 C 41.203125 -19.972656 41.175781 -19.242188 41.125 -18.453125 C 41.070312 -17.671875 41.019531 -16.972656 40.96875 -16.359375 L 15.140625 -16.359375 C 15.390625 -14.015625 16.484375 -12.15625 18.421875 -10.78125 C 20.359375 -9.40625 22.957031 -8.71875 26.21875 -8.71875 C 28.3125 -8.71875 30.363281 -8.90625 32.375 -9.28125 C 34.382812 -9.664062 36.023438 -10.140625 37.296875 -10.703125 L 38.828125 -1.453125 C 38.210938 -1.148438 37.394531 -0.84375 36.375 -0.53125 C 35.363281 -0.226562 34.234375 0.0351562 32.984375 0.265625 C 31.734375 0.492188 30.394531 0.679688 28.96875 0.828125 C 27.539062 0.984375 26.113281 1.0625 24.6875 1.0625 C 21.070312 1.0625 17.925781 0.53125 15.25 -0.53125 C 12.570312 -1.601562 10.351562 -3.066406 8.59375 -4.921875 C 6.84375 -6.785156 5.546875 -8.988281 4.703125 -11.53125 C 3.859375 -14.082031 3.4375 -16.835938 3.4375 -19.796875 Z M 30.1875 -24.15625 C 30.132812 -25.125 29.96875 -26.066406 29.6875 -26.984375 C 29.414062 -27.898438 28.984375 -28.710938 28.390625 -29.421875 C 27.804688 -30.140625 27.066406 -30.726562 26.171875 -31.1875 C 25.285156 -31.644531 24.179688 -31.875 22.859375 -31.875 C 21.578125 -31.875 20.476562 -31.65625 19.5625 -31.21875 C 18.644531 -30.789062 17.878906 -30.21875 17.265625 -29.5 C 16.660156 -28.789062 16.191406 -27.960938 15.859375 -27.015625 C 15.523438 -26.078125 15.285156 -25.125 15.140625 -24.15625 Z M 31.953125 -54.65625 L 19.34375 -44.03125 L 14.140625 -48.6875 L 25 -61.078125 Z M 31.953125 -54.65625 "/></g></g></g><g fill="#00ab59" fill-opacity="1"><g transform="translate(335.675094, 121.054841)"><g><path d="M 16.734375 -25.6875 C 17.859375 -26.90625 19.019531 -28.175781 20.21875 -29.5 C 21.414062 -30.832031 22.570312 -32.144531 23.6875 -33.4375 C 24.8125 -34.738281 25.867188 -35.972656 26.859375 -37.140625 C 27.859375 -38.316406 28.710938 -39.335938 29.421875 -40.203125 L 42.953125 -40.203125 C 40.253906 -37.097656 37.617188 -34.128906 35.046875 -31.296875 C 32.472656 -28.472656 29.65625 -25.554688 26.59375 -22.546875 C 28.125 -21.171875 29.703125 -19.523438 31.328125 -17.609375 C 32.960938 -15.703125 34.546875 -13.726562 36.078125 -11.6875 C 37.609375 -9.65625 39.007812 -7.617188 40.28125 -5.578125 C 41.550781 -3.535156 42.625 -1.675781 43.5 0 L 30.421875 0 C 29.609375 -1.320312 28.675781 -2.785156 27.625 -4.390625 C 26.582031 -5.992188 25.472656 -7.597656 24.296875 -9.203125 C 23.128906 -10.816406 21.894531 -12.359375 20.59375 -13.828125 C 19.300781 -15.304688 18.015625 -16.554688 16.734375 -17.578125 L 16.734375 0 L 5.34375 0 L 5.34375 -57.484375 L 16.734375 -59.3125 Z M 16.734375 -25.6875 "/></g></g></g><g fill="#00ab59" fill-opacity="1"><g transform="translate(379.931951, 121.054841)"><g><path d="M 20.71875 -7.953125 C 21.832031 -7.953125 22.898438 -7.976562 23.921875 -8.03125 C 24.941406 -8.082031 25.757812 -8.15625 26.375 -8.25 L 26.375 -16.890625 C 25.914062 -16.992188 25.226562 -17.09375 24.3125 -17.1875 C 23.394531 -17.289062 22.550781 -17.34375 21.78125 -17.34375 C 20.707031 -17.34375 19.695312 -17.28125 18.75 -17.15625 C 17.8125 -17.03125 16.988281 -16.789062 16.28125 -16.4375 C 15.570312 -16.082031 15.007812 -15.597656 14.59375 -14.984375 C 14.1875 -14.367188 13.984375 -13.601562 13.984375 -12.6875 C 13.984375 -10.90625 14.582031 -9.671875 15.78125 -8.984375 C 16.976562 -8.296875 18.625 -7.953125 20.71875 -7.953125 Z M 19.796875 -41.28125 C 23.160156 -41.28125 25.960938 -40.894531 28.203125 -40.125 C 30.441406 -39.363281 32.238281 -38.269531 33.59375 -36.84375 C 34.945312 -35.414062 35.898438 -33.679688 36.453125 -31.640625 C 37.015625 -29.609375 37.296875 -27.34375 37.296875 -24.84375 L 37.296875 -1.140625 C 35.671875 -0.785156 33.40625 -0.367188 30.5 0.109375 C 27.59375 0.597656 24.078125 0.84375 19.953125 0.84375 C 17.347656 0.84375 14.988281 0.613281 12.875 0.15625 C 10.757812 -0.300781 8.9375 -1.050781 7.40625 -2.09375 C 5.882812 -3.144531 4.710938 -4.507812 3.890625 -6.1875 C 3.078125 -7.875 2.671875 -9.941406 2.671875 -12.390625 C 2.671875 -14.734375 3.140625 -16.71875 4.078125 -18.34375 C 5.023438 -19.976562 6.289062 -21.28125 7.875 -22.25 C 9.457031 -23.21875 11.265625 -23.914062 13.296875 -24.34375 C 15.335938 -24.78125 17.453125 -25 19.640625 -25 C 21.117188 -25 22.429688 -24.929688 23.578125 -24.796875 C 24.722656 -24.671875 25.65625 -24.507812 26.375 -24.3125 L 26.375 -25.375 C 26.375 -27.3125 25.785156 -28.863281 24.609375 -30.03125 C 23.441406 -31.207031 21.40625 -31.796875 18.5 -31.796875 C 16.5625 -31.796875 14.648438 -31.65625 12.765625 -31.375 C 10.878906 -31.09375 9.25 -30.695312 7.875 -30.1875 L 6.421875 -39.359375 C 7.085938 -39.566406 7.914062 -39.785156 8.90625 -40.015625 C 9.894531 -40.242188 10.972656 -40.445312 12.140625 -40.625 C 13.316406 -40.800781 14.554688 -40.953125 15.859375 -41.078125 C 17.160156 -41.210938 18.472656 -41.28125 19.796875 -41.28125 Z M 30.34375 -54.65625 L 17.734375 -44.03125 L 12.53125 -48.6875 L 23.390625 -61.078125 Z M 30.34375 -54.65625 "/></g></g></g><g fill="#00ab59" fill-opacity="1"><g transform="translate(422.20145, 121.054841)"><g><path d="M 29.578125 -30.109375 C 28.554688 -30.367188 27.359375 -30.640625 25.984375 -30.921875 C 24.609375 -31.203125 23.132812 -31.34375 21.5625 -31.34375 C 20.84375 -31.34375 19.984375 -31.273438 18.984375 -31.140625 C 17.992188 -31.015625 17.242188 -30.878906 16.734375 -30.734375 L 16.734375 0 L 5.34375 0 L 5.34375 -38.0625 C 7.382812 -38.78125 9.789062 -39.457031 12.5625 -40.09375 C 15.34375 -40.726562 18.441406 -41.046875 21.859375 -41.046875 C 22.472656 -41.046875 23.210938 -41.003906 24.078125 -40.921875 C 24.941406 -40.847656 25.804688 -40.75 26.671875 -40.625 C 27.535156 -40.5 28.398438 -40.347656 29.265625 -40.171875 C 30.140625 -39.992188 30.882812 -39.773438 31.5 -39.515625 Z M 29.578125 -30.109375 "/></g></g></g><g fill="#00ab59" fill-opacity="1"><g transform="translate(454.457739, 121.054841)"><g><path d="M 5.34375 -38.828125 C 7.28125 -39.390625 9.773438 -39.910156 12.828125 -40.390625 C 15.890625 -40.878906 19.101562 -41.125 22.46875 -41.125 C 25.882812 -41.125 28.722656 -40.675781 30.984375 -39.78125 C 33.253906 -38.894531 35.050781 -37.632812 36.375 -36 C 37.707031 -34.375 38.648438 -32.4375 39.203125 -30.1875 C 39.765625 -27.945312 40.046875 -25.453125 40.046875 -22.703125 L 40.046875 0 L 28.65625 0 L 28.65625 -21.328125 C 28.65625 -24.992188 28.171875 -27.59375 27.203125 -29.125 C 26.242188 -30.65625 24.4375 -31.421875 21.78125 -31.421875 C 20.96875 -31.421875 20.101562 -31.378906 19.1875 -31.296875 C 18.269531 -31.222656 17.453125 -31.132812 16.734375 -31.03125 L 16.734375 0 L 5.34375 0 Z M 5.34375 -38.828125 "/></g></g></g><g fill="#00ab59" fill-opacity="1"><g transform="translate(499.478957, 121.054841)"><g><path d="M 20.71875 -7.953125 C 21.832031 -7.953125 22.898438 -7.976562 23.921875 -8.03125 C 24.941406 -8.082031 25.757812 -8.15625 26.375 -8.25 L 26.375 -16.890625 C 25.914062 -16.992188 25.226562 -17.09375 24.3125 -17.1875 C 23.394531 -17.289062 22.550781 -17.34375 21.78125 -17.34375 C 20.707031 -17.34375 19.695312 -17.28125 18.75 -17.15625 C 17.8125 -17.03125 16.988281 -16.789062 16.28125 -16.4375 C 15.570312 -16.082031 15.007812 -15.597656 14.59375 -14.984375 C 14.1875 -14.367188 13.984375 -13.601562 13.984375 -12.6875 C 13.984375 -10.90625 14.582031 -9.671875 15.78125 -8.984375 C 16.976562 -8.296875 18.625 -7.953125 20.71875 -7.953125 Z M 19.796875 -41.28125 C 23.160156 -41.28125 25.960938 -40.894531 28.203125 -40.125 C 30.441406 -39.363281 32.238281 -38.269531 33.59375 -36.84375 C 34.945312 -35.414062 35.898438 -33.679688 36.453125 -31.640625 C 37.015625 -29.609375 37.296875 -27.34375 37.296875 -24.84375 L 37.296875 -1.140625 C 35.671875 -0.785156 33.40625 -0.367188 30.5 0.109375 C 27.59375 0.597656 24.078125 0.84375 19.953125 0.84375 C 17.347656 0.84375 14.988281 0.613281 12.875 0.15625 C 10.757812 -0.300781 8.9375 -1.050781 7.40625 -2.09375 C 5.882812 -3.144531 4.710938 -4.507812 3.890625 -6.1875 C 3.078125 -7.875 2.671875 -9.941406 2.671875 -12.390625 C 2.671875 -14.734375 3.140625 -16.71875 4.078125 -18.34375 C 5.023438 -19.976562 6.289062 -21.28125 7.875 -22.25 C 9.457031 -23.21875 11.265625 -23.914062 13.296875 -24.34375 C 15.335938 -24.78125 17.453125 -25 19.640625 -25 C 21.117188 -25 22.429688 -24.929688 23.578125 -24.796875 C 24.722656 -24.671875 25.65625 -24.507812 26.375 -24.3125 L 26.375 -25.375 C 26.375 -27.3125 25.785156 -28.863281 24.609375 -30.03125 C 23.441406 -31.207031 21.40625 -31.796875 18.5 -31.796875 C 16.5625 -31.796875 14.648438 -31.65625 12.765625 -31.375 C 10.878906 -31.09375 9.25 -30.695312 7.875 -30.1875 L 6.421875 -39.359375 C 7.085938 -39.566406 7.914062 -39.785156 8.90625 -40.015625 C 9.894531 -40.242188 10.972656 -40.445312 12.140625 -40.625 C 13.316406 -40.800781 14.554688 -40.953125 15.859375 -41.078125 C 17.160156 -41.210938 18.472656 -41.28125 19.796875 -41.28125 Z M 19.796875 -41.28125 "/></g></g></g></svg>