<svg xmlns="http://www.w3.org/2000/svg" xmlns:xlink="http://www.w3.org/1999/xlink" width="256" zoomAndPan="magnify" viewBox="0 0 192 191.999996" height="256" preserveAspectRatio="xMidYMid meet" version="1.0"><defs><g/><clipPath id="1e49e4deed"><path d="M 96 0 C 42.980469 0 0 42.980469 0 96 C 0 149.019531 42.980469 192 96 192 C 149.019531 192 192 149.019531 192 96 C 192 42.980469 149.019531 0 96 0 Z M 96 0 " clip-rule="nonzero"/></clipPath></defs><g clip-path="url(#1e49e4deed)"><rect x="-19.2" width="230.4" fill="#f3f3f3" y="-19.2" height="230.399995" fill-opacity="1"/></g><g fill="#000000" fill-opacity="1"><g transform="translate(21.351563, 124.873524)"><g><path d="M 6.875 0 L 6.875 -55.453125 L 40.734375 -55.453125 L 40.734375 -48.8125 L 14.640625 -48.8125 L 14.640625 -32.328125 L 37.84375 -32.328125 L 37.84375 -25.84375 L 14.640625 -25.84375 L 14.640625 -6.640625 L 42.734375 -6.640625 L 42.734375 0 Z M 6.875 0 "/></g></g></g><g fill="#000000" fill-opacity="1"><g transform="translate(65.27355, 124.873524)"><g><path d="M 27.53125 1.203125 C 23.894531 1.203125 20.742188 0.644531 18.078125 -0.46875 C 15.410156 -1.59375 13.222656 -3.128906 11.515625 -5.078125 C 9.816406 -7.023438 8.550781 -9.332031 7.71875 -12 C 6.894531 -14.664062 6.484375 -17.546875 6.484375 -20.640625 L 6.484375 -55.453125 L 14.25 -55.453125 L 14.25 -21.53125 C 14.25 -15.976562 15.472656 -11.945312 17.921875 -9.4375 C 20.378906 -6.9375 23.582031 -5.6875 27.53125 -5.6875 C 29.5 -5.6875 31.296875 -5.988281 32.921875 -6.59375 C 34.546875 -7.207031 35.945312 -8.15625 37.125 -9.4375 C 38.300781 -10.71875 39.207031 -12.359375 39.84375 -14.359375 C 40.488281 -16.359375 40.8125 -18.75 40.8125 -21.53125 L 40.8125 -55.453125 L 48.5625 -55.453125 L 48.5625 -20.640625 C 48.5625 -17.546875 48.148438 -14.664062 47.328125 -12 C 46.503906 -9.332031 45.222656 -7.023438 43.484375 -5.078125 C 41.753906 -3.128906 39.566406 -1.59375 36.921875 -0.46875 C 34.285156 0.644531 31.15625 1.203125 27.53125 1.203125 Z M 27.53125 1.203125 "/></g></g></g><g fill="#000000" fill-opacity="1"><g transform="translate(120.316207, 124.873524)"><g><path d="M 34 -23.203125 C 34.851562 -22.140625 35.929688 -20.738281 37.234375 -19 C 38.546875 -17.269531 39.894531 -15.347656 41.28125 -13.234375 C 42.675781 -11.128906 44.050781 -8.929688 45.40625 -6.640625 C 46.769531 -4.347656 47.929688 -2.132812 48.890625 0 L 40.40625 0 C 39.34375 -2.03125 38.179688 -4.082031 36.921875 -6.15625 C 35.671875 -8.238281 34.40625 -10.226562 33.125 -12.125 C 31.84375 -14.019531 30.578125 -15.789062 29.328125 -17.4375 C 28.078125 -19.09375 26.941406 -20.535156 25.921875 -21.765625 C 25.234375 -21.710938 24.523438 -21.6875 23.796875 -21.6875 C 23.078125 -21.6875 22.347656 -21.6875 21.609375 -21.6875 L 14.640625 -21.6875 L 14.640625 0 L 6.875 0 L 6.875 -54.65625 C 9.0625 -55.1875 11.503906 -55.546875 14.203125 -55.734375 C 16.898438 -55.921875 19.367188 -56.015625 21.609375 -56.015625 C 29.390625 -56.015625 35.320312 -54.546875 39.40625 -51.609375 C 43.488281 -48.671875 45.53125 -44.296875 45.53125 -38.484375 C 45.53125 -34.804688 44.554688 -31.660156 42.609375 -29.046875 C 40.660156 -26.429688 37.789062 -24.484375 34 -23.203125 Z M 22.25 -49.203125 C 18.9375 -49.203125 16.398438 -49.125 14.640625 -48.96875 L 14.640625 -28.078125 L 20.15625 -28.078125 C 22.832031 -28.078125 25.234375 -28.210938 27.359375 -28.484375 C 29.492188 -28.753906 31.296875 -29.257812 32.765625 -30 C 34.234375 -30.75 35.367188 -31.800781 36.171875 -33.15625 C 36.972656 -34.519531 37.375 -36.320312 37.375 -38.5625 C 37.375 -40.644531 36.972656 -42.378906 36.171875 -43.765625 C 35.367188 -45.148438 34.285156 -46.242188 32.921875 -47.046875 C 31.566406 -47.847656 29.96875 -48.40625 28.125 -48.71875 C 26.28125 -49.039062 24.320312 -49.203125 22.25 -49.203125 Z M 22.25 -49.203125 "/></g></g></g></svg>