<svg xmlns="http://www.w3.org/2000/svg" xmlns:xlink="http://www.w3.org/1999/xlink" width="256" zoomAndPan="magnify" viewBox="0 0 192 191.999996" height="256" preserveAspectRatio="xMidYMid meet" version="1.0"><defs><g/><clipPath id="9db1f4415a"><path d="M 96 0 C 42.980469 0 0 42.980469 0 96 C 0 149.019531 42.980469 192 96 192 C 149.019531 192 192 149.019531 192 96 C 192 42.980469 149.019531 0 96 0 Z M 96 0 " clip-rule="nonzero"/></clipPath></defs><g clip-path="url(#9db1f4415a)"><rect x="-19.2" width="230.4" fill="#f3f3f3" y="-19.2" height="230.399995" fill-opacity="1"/></g><g fill="#000000" fill-opacity="1"><g transform="translate(27.328125, 142.497061)"><g><path d="M 76.671875 -88.703125 C 74.023438 -85.804688 71.035156 -82.585938 67.703125 -79.046875 C 64.378906 -75.503906 60.90625 -71.875 57.28125 -68.15625 C 53.65625 -64.445312 50.050781 -60.800781 46.46875 -57.21875 C 42.882812 -53.632812 39.515625 -50.304688 36.359375 -47.234375 C 40.023438 -44.671875 43.90625 -41.507812 48 -37.75 C 52.09375 -34 56.101562 -29.988281 60.03125 -25.71875 C 63.957031 -21.457031 67.644531 -17.109375 71.09375 -12.671875 C 74.550781 -8.234375 77.4375 -4.007812 79.75 0 L 65.15625 0 C 62.59375 -4.007812 59.644531 -8.039062 56.3125 -12.09375 C 52.988281 -16.144531 49.46875 -20.023438 45.75 -23.734375 C 42.039062 -27.453125 38.285156 -30.890625 34.484375 -34.046875 C 30.691406 -37.203125 27.003906 -39.890625 23.421875 -42.109375 L 23.421875 0 L 11.015625 0 L 11.015625 -88.703125 L 23.421875 -88.703125 L 23.421875 -49.53125 C 26.410156 -52.351562 29.695312 -55.535156 33.28125 -59.078125 C 36.863281 -62.617188 40.40625 -66.179688 43.90625 -69.765625 C 47.40625 -73.347656 50.710938 -76.78125 53.828125 -80.0625 C 56.941406 -83.34375 59.566406 -86.222656 61.703125 -88.703125 Z M 76.671875 -88.703125 "/></g></g></g><g fill="#000000" fill-opacity="1"><g transform="translate(105.147293, 142.497061)"><g><path d="M 39.171875 1.53125 C 33.796875 1.53125 29.078125 0.679688 25.015625 -1.015625 C 20.960938 -2.722656 17.550781 -5.113281 14.78125 -8.1875 C 12.007812 -11.257812 9.941406 -14.90625 8.578125 -19.125 C 7.210938 -23.351562 6.53125 -28.03125 6.53125 -33.15625 C 6.53125 -38.269531 7.273438 -42.957031 8.765625 -47.21875 C 10.265625 -51.488281 12.378906 -55.179688 15.109375 -58.296875 C 17.835938 -61.410156 21.1875 -63.84375 25.15625 -65.59375 C 29.125 -67.34375 33.539062 -68.21875 38.40625 -68.21875 C 41.382812 -68.21875 44.367188 -67.960938 47.359375 -67.453125 C 50.347656 -66.941406 53.207031 -66.132812 55.9375 -65.03125 L 53.25 -54.90625 C 51.457031 -55.757812 49.382812 -56.441406 47.03125 -56.953125 C 44.6875 -57.472656 42.191406 -57.734375 39.546875 -57.734375 C 32.890625 -57.734375 27.789062 -55.640625 24.25 -51.453125 C 20.707031 -47.273438 18.9375 -41.175781 18.9375 -33.15625 C 18.9375 -29.570312 19.34375 -26.285156 20.15625 -23.296875 C 20.96875 -20.304688 22.25 -17.742188 24 -15.609375 C 25.75 -13.484375 27.988281 -11.84375 30.71875 -10.6875 C 33.445312 -9.53125 36.773438 -8.953125 40.703125 -8.953125 C 43.859375 -8.953125 46.71875 -9.25 49.28125 -9.84375 C 51.84375 -10.445312 53.847656 -11.09375 55.296875 -11.78125 L 56.953125 -1.796875 C 56.273438 -1.367188 55.296875 -0.960938 54.015625 -0.578125 C 52.734375 -0.191406 51.28125 0.144531 49.65625 0.4375 C 48.039062 0.738281 46.316406 0.992188 44.484375 1.203125 C 42.648438 1.421875 40.878906 1.53125 39.171875 1.53125 Z M 19.328125 -93.3125 L 24.3125 -98.9375 L 36.734375 -87.6875 L 49.15625 -98.9375 L 54.140625 -93.3125 L 36.734375 -75.015625 Z M 19.328125 -93.3125 "/></g></g></g></svg>